<svg width="1440" height="721" viewBox="0 0 1440 721" fill="none" xmlns="http://www.w3.org/2000/svg">
<g clip-path="url(#clip0_462_687)">
<rect width="1440" height="715" fill="#EDFBFE"/>
<path d="M999.619 568.749L976.991 546.121C975.82 544.95 973.92 544.95 972.749 546.121L950.121 568.749C948.95 569.92 948.95 571.82 950.121 572.991L972.749 595.619C973.92 596.79 975.82 596.79 976.991 595.619L999.619 572.991C1000.79 571.82 1000.79 569.92 999.619 568.749Z" fill="url(#paint0_linear_462_687)"/>
<path d="M527.334 345.836L516.728 335.229C516.337 334.838 515.704 334.838 515.314 335.229L504.707 345.836C504.317 346.226 504.317 346.859 504.707 347.25L515.314 357.856C515.704 358.247 516.337 358.247 516.728 357.856L527.334 347.25C527.725 346.859 527.725 346.226 527.334 345.836Z" fill="url(#paint1_linear_462_687)"/>
<path opacity="0.543" fill-rule="evenodd" clip-rule="evenodd" d="M1337.68 270.743L1336.04 298.117C1336.02 298.457 1335.91 298.786 1335.73 299.073C1335.55 299.361 1335.29 299.596 1334.99 299.758C1334.69 299.919 1334.35 300.001 1334.01 299.996C1333.67 299.991 1333.34 299.899 1333.04 299.728L1311.8 287.464C1311.51 287.294 1311.26 287.051 1311.09 286.758C1310.91 286.466 1310.81 286.133 1310.8 285.792C1310.79 285.452 1310.87 285.114 1311.03 284.812C1311.18 284.509 1311.42 284.252 1311.7 284.064L1334.59 268.954C1334.9 268.75 1335.26 268.636 1335.63 268.625C1336 268.613 1336.37 268.706 1336.69 268.892C1337.01 269.077 1337.27 269.349 1337.45 269.676C1337.62 270.003 1337.71 270.372 1337.68 270.743V270.743Z" stroke="url(#paint2_linear_462_687)" stroke-width="10"/>
<path opacity="0.543" fill-rule="evenodd" clip-rule="evenodd" d="M852.851 154.232L850.384 195.324C850.333 196.175 850.066 196.998 849.607 197.717C849.148 198.435 848.513 199.024 847.762 199.428C847.012 199.831 846.171 200.037 845.319 200.024C844.466 200.011 843.632 199.781 842.893 199.355L811.006 180.945C810.268 180.518 809.651 179.911 809.214 179.179C808.777 178.448 808.534 177.616 808.509 176.764C808.483 175.913 808.676 175.068 809.068 174.312C809.461 173.555 810.04 172.912 810.752 172.442L845.105 149.76C845.88 149.249 846.782 148.963 847.71 148.935C848.638 148.907 849.556 149.138 850.36 149.603C851.164 150.067 851.823 150.746 852.263 151.564C852.703 152.381 852.906 153.305 852.851 154.232V154.232Z" stroke="url(#paint3_linear_462_687)" stroke-width="10"/>
<path fill-rule="evenodd" clip-rule="evenodd" d="M0 405C38.952 312.377 95.85 279.046 170.692 305.008C282.957 343.951 322.832 396.614 383.282 305.008C398.954 281.257 393.147 230.498 354.003 228.482C314.859 226.466 344.752 182.166 412.147 173.475C479.542 164.784 394.051 103.413 342.752 85.577C289.477 67.055 357.911 18.295 363.196 -0.326C371.776 -30.558 250.711 -30.558 0 -0.326V405H0Z" fill="url(#paint4_linear_462_687)"/>
<path fill-rule="evenodd" clip-rule="evenodd" d="M1440 715C1352.5 713.975 1287.98 693.817 1246.44 654.526C1184.14 595.591 1184.65 468.139 1051.81 475.107C918.966 482.075 777.007 453.569 827.409 373.286C877.811 293.002 995.536 302.954 1023.67 172.094C1051.81 41.234 821.437 199.259 783.387 112.246C768.529 78.266 803.796 73.685 749.114 35.456C730.961 22.766 722.183 4.376 725.802 -2.772C727.546 -6.217 733.726 -1.194 740.172 -2.772C760.638 -7.785 803.932 -2.772 847.813 -2.772H1440V715Z" fill="url(#paint5_linear_462_687)"/>
<path fill-rule="evenodd" clip-rule="evenodd" d="M520.396 589.23C529.096 587.41 531.805 597.008 547.671 597.008C563.537 597.008 577.646 587.943 597.281 595.936C616.917 603.93 632.804 628.146 612.687 623.477C600.805 620.719 586.109 612.31 565.871 628.319C545.632 644.327 533.522 613.759 518.36 618.45C503.197 623.142 511.625 591.064 520.396 589.23Z" fill="url(#paint6_linear_462_687)"/>
</g>
<defs>
<linearGradient id="paint0_linear_462_687" x1="976.999" y1="615.51" x2="974.87" y2="570.87" gradientUnits="userSpaceOnUse">
<stop stop-color="white" stop-opacity="0"/>
<stop offset="1" stop-color="#C9F0FF"/>
</linearGradient>
<linearGradient id="paint1_linear_462_687" x1="523.673" y1="288.212" x2="520.39" y2="355.889" gradientUnits="userSpaceOnUse">
<stop stop-color="white" stop-opacity="0"/>
<stop offset="1" stop-color="#DEF5FE"/>
</linearGradient>
<linearGradient id="paint2_linear_462_687" x1="1190.31" y1="295.853" x2="1333.49" y2="283.515" gradientUnits="userSpaceOnUse">
<stop stop-color="white" stop-opacity="0"/>
<stop offset="1" stop-color="#C9F0FF"/>
</linearGradient>
<linearGradient id="paint3_linear_462_687" x1="756.054" y1="175.286" x2="845.11" y2="173.603" gradientUnits="userSpaceOnUse">
<stop stop-color="white" stop-opacity="0"/>
<stop offset="1" stop-color="#C9F0FF"/>
</linearGradient>
<linearGradient id="paint4_linear_462_687" x1="-86.8319" y1="-51.967" x2="504.431" y2="416.922" gradientUnits="userSpaceOnUse">
<stop stop-color="white" stop-opacity="0"/>
<stop offset="1" stop-color="#C9F0FF"/>
</linearGradient>
<linearGradient id="paint5_linear_462_687" x1="1582.54" y1="-5.00003" x2="721.039" y2="598.385" gradientUnits="userSpaceOnUse">
<stop stop-color="white" stop-opacity="0"/>
<stop offset="1" stop-color="#C9F0FF"/>
</linearGradient>
<linearGradient id="paint6_linear_462_687" x1="410.291" y1="623.166" x2="596.685" y2="497.529" gradientUnits="userSpaceOnUse">
<stop stop-color="white" stop-opacity="0"/>
<stop offset="1" stop-color="#C9F0FF"/>
</linearGradient>
<clipPath id="clip0_462_687">
<rect width="1440" height="724" fill="white" transform="translate(0 -3)"/>
</clipPath>
</defs>
</svg>
