<svg width="375" height="657" viewBox="0 0 375 657" fill="none" xmlns="http://www.w3.org/2000/svg">
<g clip-path="url(#clip0_469_70)">
<path fill-rule="evenodd" clip-rule="evenodd" d="M-40 321C-25.55 266.953 3.71 246.414 47.777 259.383C113.877 278.837 113.877 278.128 159.096 245.305C172.659 235.46 164.22 188.9 143.887 187.375C123.554 185.848 139.081 152.313 174.09 145.733C209.099 139.154 164.69 92.696 138.043 79.194C110.369 65.172 145.917 28.261 148.663 14.164C153.119 -8.71999 90.232 -8.71999 -40 14.164V321Z" fill="url(#paint0_linear_469_70)"/>
<path fill-rule="evenodd" clip-rule="evenodd" d="M375 535C348.812 534.39 329.501 522.408 317.069 499.052C298.42 464.018 298.574 388.255 258.814 392.397C219.054 396.539 176.566 379.594 191.651 331.87C206.736 284.146 241.971 290.061 250.393 212.273C258.814 134.483 189.863 228.421 178.475 176.696C174.028 156.496 184.584 153.774 168.217 131.049C162.784 123.505 160.157 112.573 161.24 108.324C164.606 36.734 166.931 0.626005 168.217 4.76837e-06C174.343 -2.98 182.633 -2 195.767 -2C224.043 -2 283.787 -1.333 375 4.76837e-06V535Z" fill="url(#paint1_linear_469_70)"/>
<path d="M53.4206 645.107L43.8931 635.579C43.3998 635.086 42.6002 635.086 42.1069 635.579L32.5794 645.107C32.0861 645.6 32.0861 646.4 32.5794 646.893L42.1069 656.421C42.6002 656.914 43.3998 656.914 43.8931 656.421L53.4206 646.893C53.9139 646.4 53.9139 645.6 53.4206 645.107Z" fill="url(#paint2_linear_469_70)"/>
<path opacity="0.543" fill-rule="evenodd" clip-rule="evenodd" d="M60.7287 457.128L59.6123 475.735C59.5892 476.121 59.4681 476.494 59.2603 476.819C59.0525 477.144 58.765 477.411 58.4252 477.594C58.0853 477.777 57.7042 477.87 57.3183 477.864C56.9323 477.858 56.5543 477.754 56.2201 477.561L41.7799 469.224C41.4457 469.031 41.1662 468.756 40.9682 468.424C40.7703 468.093 40.6603 467.716 40.6487 467.331C40.6372 466.945 40.7245 466.563 40.9023 466.22C41.0801 465.877 41.3426 465.586 41.6648 465.373L57.2213 455.103C57.5722 454.871 57.9806 454.742 58.4009 454.729C58.8212 454.716 59.2366 454.821 59.6008 455.031C59.9649 455.241 60.2633 455.549 60.4625 455.919C60.6617 456.289 60.7539 456.708 60.7287 457.128V457.128Z" stroke="url(#paint3_linear_469_70)" stroke-width="4.528"/>
<path d="M233.677 445.314L225.898 437.535C225.508 437.145 224.875 437.145 224.484 437.535L216.706 445.314C216.315 445.704 216.315 446.337 216.706 446.728L224.484 454.506C224.875 454.897 225.508 454.897 225.898 454.506L233.677 446.728C234.067 446.337 234.067 445.704 233.677 445.314Z" fill="url(#paint4_linear_469_70)"/>
</g>
<defs>
<linearGradient id="paint0_linear_469_70" x1="-85.1049" y1="-24.9272" x2="300.883" y2="185.116" gradientUnits="userSpaceOnUse">
<stop stop-color="white" stop-opacity="0"/>
<stop offset="1" stop-color="#C9F0FF"/>
</linearGradient>
<linearGradient id="paint1_linear_469_70" x1="417.663" y1="-2.15429" x2="61.4523" y2="97.9346" gradientUnits="userSpaceOnUse">
<stop stop-color="white" stop-opacity="0"/>
<stop offset="1" stop-color="#C9F0FF"/>
</linearGradient>
<linearGradient id="paint2_linear_469_70" x1="43.8966" y1="664.796" x2="43" y2="646" gradientUnits="userSpaceOnUse">
<stop stop-color="white" stop-opacity="0"/>
<stop offset="1" stop-color="#C9F0FF"/>
</linearGradient>
<linearGradient id="paint3_linear_469_70" x1="16.8946" y1="466.661" x2="57.2238" y2="465.898" gradientUnits="userSpaceOnUse">
<stop stop-color="white" stop-opacity="0"/>
<stop offset="1" stop-color="#C9F0FF"/>
</linearGradient>
<linearGradient id="paint4_linear_469_70" x1="231.043" y1="401.415" x2="228.532" y2="453.168" gradientUnits="userSpaceOnUse">
<stop stop-color="white" stop-opacity="0"/>
<stop offset="1" stop-color="#DEF5FE"/>
</linearGradient>
<clipPath id="clip0_469_70">
<rect width="375" height="657" fill="white"/>
</clipPath>
</defs>
</svg>
