<svg width="407" height="333" viewBox="0 0 407 333" fill="none" xmlns="http://www.w3.org/2000/svg">
<g clip-path="url(#clip0_462_842)">
<path opacity="0.1" d="M69.8969 332.732C108.5 332.732 139.794 327.4 139.794 320.822C139.794 314.244 108.5 308.912 69.8969 308.912C31.2939 308.912 0 314.244 0 320.822C0 327.4 31.2939 332.732 69.8969 332.732Z" fill="#00C7FA"/>
<path opacity="0.1" d="M336.568 329.917C375.171 329.917 406.465 324.584 406.465 318.007C406.465 311.429 375.171 306.097 336.568 306.097C297.965 306.097 266.671 311.429 266.671 318.007C266.671 324.584 297.965 329.917 336.568 329.917Z" fill="#00C7FA"/>
<path opacity="0.1" d="M108.98 0.182697C90.7112 1.15965 72.2521 6.49715 57.9987 17.9704C45.4928 28.0418 36.4737 43.8755 38.6739 59.7848C41.2712 78.5653 58.0265 92.2268 64.2418 110.142C68.241 121.659 67.6175 134.367 65.0003 146.281C63.3164 153.958 60.7271 161.642 55.7509 167.726C46.7875 178.671 30.6119 183.953 26.2076 197.396C21.4181 212.015 33.4872 226.351 44.8256 236.748C53.8764 245.045 63.3562 253.301 74.762 257.848C83.102 261.176 92.1528 262.372 101.124 262.848C125.898 264.148 150.666 260.191 173.801 251.236C184.885 246.935 195.608 241.482 207.208 238.889C231.93 233.361 257.367 241.331 282.423 245.064C303.901 248.255 325.728 248.319 347.224 245.255C360.751 243.325 374.726 239.842 384.913 230.74C395.239 221.498 400.402 207.194 399.83 193.334C399.258 179.474 393.412 166.13 384.802 155.248C373.682 141.194 358.344 131.194 345 119.216C331.413 107.013 319.855 92.7258 310.759 76.8894C305.517 67.7553 301.057 58.0612 294.266 50.0192C283.674 37.4856 268.313 30.0314 252.963 24.2729C217.554 11.0086 180.826 8.30809 143.908 2.44637C132.371 0.607631 120.668 -0.428892 108.98 0.182697Z" fill="#00C7FA"/>
<g opacity="0.7">
<path d="M102.675 145.793H178.513V188.171H102.675V145.793Z" fill="#F6F7F9"/>
<path opacity="0.2" d="M116.952 172.499C121.313 172.499 124.848 168.964 124.848 164.604C124.848 160.243 121.313 156.709 116.952 156.709C112.592 156.709 109.057 160.243 109.057 164.604C109.057 168.964 112.592 172.499 116.952 172.499Z" fill="#00C7FA"/>
<path opacity="0.2" d="M134.475 155.248H168.876V157.412H134.475V155.248ZM134.475 160.764H152.001V162.928H134.475V160.764ZM134.475 166.28H162.819V168.444H134.475V166.28ZM134.475 171.796H168.876V173.961H134.475V171.796ZM159.36 179.759H168.88V183.941H159.36V179.759Z" fill="#00C7FA"/>
<path d="M166.525 28.6733H242.363V71.0511H166.525V28.6733Z" fill="#F6F7F9"/>
<path opacity="0.2" d="M180.806 55.3806C185.166 55.3806 188.701 51.8458 188.701 47.4855C188.701 43.1252 185.166 39.5905 180.806 39.5905C176.445 39.5905 172.911 43.1252 172.911 47.4855C172.911 51.8458 176.445 55.3806 180.806 55.3806Z" fill="#00C7FA"/>
<path opacity="0.2" d="M198.328 38.1287H232.729V40.2931H198.328V38.1287ZM198.328 43.6449H215.854V45.8093H198.328V43.6449ZM198.328 49.1611H226.673V51.3255H198.328V49.1611ZM198.328 54.6813H232.729V56.8457H198.328V54.6813ZM223.21 62.6399H232.729V66.8217H223.21V62.6399Z" fill="#00C7FA"/>
<path d="M191.768 99.8229H267.606V142.201H191.768V99.8229Z" fill="#F6F7F9"/>
<path opacity="0.2" d="M206.046 126.534C210.406 126.534 213.941 122.999 213.941 118.639C213.941 114.279 210.406 110.744 206.046 110.744C201.685 110.744 198.151 114.279 198.151 118.639C198.151 122.999 201.685 126.534 206.046 126.534Z" fill="#00C7FA"/>
<path opacity="0.2" d="M223.573 109.283H257.974V111.447H223.573V109.283ZM223.573 114.799H241.099V116.963H223.573V114.799ZM223.573 120.315H251.917V122.48H223.573V120.315ZM223.573 125.831H257.974V127.996H223.573V125.831ZM248.454 133.794H257.974V137.976H248.454V133.794Z" fill="#00C7FA"/>
</g>
<path d="M76.2034 53.8947H203.729V125.95H76.2034V53.8947Z" fill="url(#paint0_linear_462_842)"/>
<path d="M77.1059 54.7886H202.841V125.053H77.1059V54.7886Z" fill="#F6F7F9"/>
<path opacity="0.2" d="M100.775 99.0724C108.005 99.0724 113.865 93.212 113.865 85.9829C113.865 78.7537 108.005 72.8934 100.775 72.8934C93.5458 72.8934 87.6853 78.7537 87.6853 85.9829C87.6853 93.212 93.5458 99.0724 100.775 99.0724Z" fill="#00C7FA"/>
<path opacity="0.2" d="M129.834 70.4671H186.871V74.0532H129.834V70.4671ZM129.834 79.6171H158.888V83.2032H129.834V79.6171ZM129.834 88.7631H176.827V92.3492H129.834V88.7631ZM129.834 97.909H186.871V101.495H129.834V97.909Z" fill="#00C7FA"/>
<path d="M171.085 111.11H186.867V118.044H171.085V111.11Z" fill="#00C7FA"/>
<path d="M165.655 151.237H286.95V219.016H165.655V151.237Z" fill="url(#paint1_linear_462_842)"/>
<path d="M166.495 151.7H286.115V218.546H166.495V151.7Z" fill="#F6F7F9"/>
<path opacity="0.2" d="M189.017 193.835C195.895 193.835 201.471 188.259 201.471 181.38C201.471 174.502 195.895 168.926 189.017 168.926C182.138 168.926 176.562 174.502 176.562 181.38C176.562 188.259 182.138 193.835 189.017 193.835Z" fill="#00C7FA"/>
<path opacity="0.2" d="M216.657 166.619H270.919V170.03H216.657V166.619ZM216.657 175.324H244.298V178.735H216.657V175.324ZM216.657 184.025H261.364V187.436H216.657V184.025ZM216.657 192.726H270.919V196.138H216.657V192.726Z" fill="#00C7FA"/>
<path opacity="0.5" d="M255.904 205.283H270.92V211.879H255.904V205.283Z" fill="#00C7FA"/>
<path opacity="0.1" d="M32.9071 114.346L33.3139 114.434C33.195 114.353 33.049 114.321 32.9071 114.346Z" fill="url(#paint2_linear_462_842)"/>
<path d="M94.3526 160.478C93.4749 154.584 88.1215 140.836 88.1215 140.836C88.0262 140.439 87.9229 140.018 87.8037 139.613C84.0031 126.551 78.745 125.395 78.745 125.395L59.9087 121.38C60.0641 121.478 60.199 121.604 60.3058 121.754L60.0079 121.801C59.1435 120.782 58.5724 119.546 58.3559 118.227C58.3201 118.032 58.2883 117.83 58.2645 117.623C59.6183 116.305 60.6742 114.712 61.3615 112.952C62.0488 111.192 62.3514 109.305 62.2491 107.418C62.1468 105.531 61.6419 103.688 60.7683 102.012C59.8947 100.337 58.6727 98.8674 57.1843 97.7032C56.9897 97.5483 56.7871 97.4013 56.5806 97.2544C57.4702 96.3132 57.498 94.9987 56.8348 93.6802C55.3495 90.5945 52.1247 88.6446 48.8046 87.6954C46.2709 86.9687 43.5227 86.7343 41.0128 87.5286C39.5791 87.9813 38.2765 88.7478 36.9341 89.419C34.4322 90.6699 31.676 91.6588 29.7856 93.712C29.3448 94.1925 28.9437 94.8041 29.0708 95.4355C29.1701 95.9081 29.5394 96.2695 29.7816 96.6905C30.3178 97.6277 30.1788 98.8072 29.8174 99.8278C29.456 100.848 28.9079 101.813 28.6498 102.846C28.3917 103.879 28.4949 105.126 29.2812 105.872C29.6633 106.171 30.061 106.45 30.4727 106.706C30.9041 107.071 31.2824 107.495 31.5966 107.965L33.8285 110.979C34.8703 112.316 35.8001 113.735 36.6085 115.225C37.1605 116.317 37.5934 117.488 38.336 118.465C38.5545 118.756 38.8035 119.022 39.0787 119.26C39.0072 119.232 38.9317 119.208 38.8603 119.176C39.1891 119.497 39.5799 119.747 40.0087 119.912C40.4375 120.076 40.8954 120.152 41.3543 120.133H41.4655C41.6357 120.13 41.7988 120.064 41.9222 119.947V120.344C41.9619 121.793 41.958 123.334 41.8547 124.78L41.68 124.692C41.4212 124.562 41.1307 124.509 40.8428 124.54C40.5549 124.57 40.2817 124.682 40.0557 124.863L22.7046 138.763C22.7046 138.763 18.9358 143.925 19.46 152.821L16.4219 166.173C16.4219 166.173 12.6212 177.503 15.5442 185.593C18.4671 193.682 20.1629 198.301 20.1629 198.301C20.1629 198.301 21.3305 207.491 23.0859 208.229C24.8412 208.968 25.5998 209.389 25.5998 209.389L25.9492 211.585C25.9492 211.585 26.0644 211.795 26.2709 212.161C27.5497 214.381 32.2797 222.22 35.0318 221.386C35.3756 223.514 35.5258 225.669 35.4806 227.824L38.197 246.092C38.197 246.092 40.0954 251.06 39.9802 253.661C39.865 256.262 42.2002 259.964 42.2002 259.964C40.7825 262.556 40.367 265.579 41.0326 268.458C42.1446 273.315 43.5465 295.737 43.5465 295.737L45.5918 301.17L45.5322 307.524C45.3629 308.556 44.9307 309.527 44.2772 310.344C42.9587 311.774 43.0461 313.426 39.9087 315.376C36.7713 317.326 34.7459 318.06 34.7459 320.661C34.7423 321.021 34.7104 321.379 34.6506 321.734C34.3567 323.636 33.7888 324.661 39.6148 325.217C46.4536 325.864 51.0127 321.4 51.0127 321.4C51.0127 321.4 52.0175 319.577 56.7554 318.843C56.7554 318.843 58.3717 318.755 58.4631 317.322C58.4948 316.829 58.4869 315.884 58.4432 314.843C58.3678 312.858 58.1771 310.546 57.9269 310.431C57.6132 310.292 57.0572 308.295 56.8666 307.572H58.1851C58.1851 307.572 59.4122 298.382 58.1851 292.425C56.9579 286.468 58.0699 282.255 58.0699 282.255L57.8356 266.536C57.8356 266.536 56.1795 264.856 57.4782 261.798C58.7768 258.74 57.4782 243.594 57.4782 243.594C57.4782 243.594 57.9508 238.161 59.2931 236.89C60.6354 235.619 59.3606 228.928 59.2931 228.578L61.6759 236.6C61.6759 236.6 62.7284 252.553 64.9523 255.444L65.5957 262.664C65.5957 262.664 70.1549 269.312 69.2772 272.898C68.3995 276.484 70.2144 289.427 70.2144 289.427V302.663C70.2144 302.663 68.1652 307.981 71.0325 309.887L72.2676 309.84C71.8467 310.237 71.5449 310.789 71.0762 311.277C70.5282 311.841 70.2184 313.986 70.0437 315.828C69.8967 317.389 69.8491 318.731 69.8491 318.731C69.8491 318.731 71.0762 320.681 73.3558 320.812C75.6354 320.943 83.1771 326.71 83.1771 326.71C83.1771 326.71 90.6354 326.71 92.5615 326.313L92.6767 326.285C93.2954 326.088 93.8154 325.661 94.1302 325.093C94.5188 324.436 94.645 323.656 94.4836 322.909C94.2414 321.769 93.3399 320.526 91.3343 319.458C86.3343 316.817 85.5917 314.347 85.5917 314.347L82.3153 309.438H82.7839C82.7839 309.438 82.494 304.236 86.0563 298.398L85.826 272.68C85.826 272.68 87.2835 263.836 84.7736 259.038C84.7736 259.038 84.5671 253.951 86.247 252.39C87.9269 250.83 84.0111 235.052 84.0111 235.052C84.0111 235.052 83.2168 226.585 82.2478 218.856C86.1914 222.597 90.2859 209.123 90.9848 206.728H91.0881C91.0881 206.728 91.0682 206.664 91.0405 206.553C91.0126 206.442 91.0881 206.383 91.0881 206.383C91.0881 206.363 90.2144 203.265 90.8538 203.896C91.4932 204.528 93.0778 202.165 93.0778 202.165C93.0778 202.165 92.8435 189.274 95.5917 182.777C98.3399 176.28 94.3526 160.478 94.3526 160.478ZM82.6012 168.679L82.6211 168.643C83.0182 176.514 82.5416 193.309 82.5416 193.309C82.5416 193.309 82.0015 195.461 81.4217 197.995L81.0047 182.038L80.6076 167.011L82.6012 168.679ZM32.2717 163.254C32.2717 163.254 34.2574 188.106 32.2717 191.689C31.7038 192.709 31.2312 194.524 30.838 196.601C30.1828 194.878 28.7928 190.831 29.2892 188.686C29.9326 185.906 28.0025 178.627 28.0025 178.456C28.0025 178.285 27.8277 174.409 29.2296 171.431C30.6315 168.452 29.6982 167.182 29.6982 167.182C29.6982 167.182 30.8698 162.329 32.2717 163.254Z" fill="url(#paint3_linear_462_842)"/>
<path d="M37.1089 219.228C35.3813 226.837 28.4949 215.328 26.9262 212.568L26.6085 211.996L27.3551 208.497L31.3027 206.889C31.9263 207.215 32.5168 207.601 33.066 208.041C35.2384 209.724 38.4433 213.334 37.1089 219.228ZM90.5241 206.774L90.4804 206.945C90.4804 206.996 90.4447 207.056 90.4248 207.131C89.7497 209.514 85.7346 222.881 81.8585 219.168C77.6171 215.094 79.6783 205.737 79.6783 205.737H79.718L88.6417 204.824L90.409 206.643L90.5241 206.774Z" fill="#EFB7B9"/>
<path d="M85.3621 272.581L85.5884 298.109C82.0935 303.907 82.3755 309.07 82.3755 309.07L70.8583 309.526C68.0465 307.636 70.064 302.358 70.064 302.358V289.217C70.064 289.217 68.265 276.374 69.1228 272.799C69.9806 269.225 65.5088 262.645 65.5088 262.645L64.8813 255.476C62.697 252.609 61.6644 236.771 61.6644 236.771L59.3173 228.829C59.3768 229.174 60.5961 235.85 59.3173 237.077C58.0385 238.304 57.5381 243.733 57.5381 243.733C57.5381 243.733 58.801 258.765 57.5381 261.803C56.2751 264.841 57.8796 266.568 57.8796 266.568L58.1139 282.172C58.1139 282.172 57.0218 286.362 58.2251 292.271C59.4285 298.18 58.2251 307.302 58.2251 307.302H45.8342L45.8898 300.948L43.8842 295.555C43.8842 295.555 42.5061 273.296 41.4179 268.479C40.7639 265.621 41.1704 262.624 42.5617 260.043C42.5617 260.043 40.2702 256.37 40.3854 253.789C40.5005 251.207 38.6339 246.275 38.6339 246.275L35.9651 228.146C36.0403 224.658 35.5959 221.178 34.6466 217.82C33.0938 212.657 30.8022 205.886 30.8022 205.886L33.3916 206.117L46.4657 207.28C46.4657 207.28 78.2373 205.144 79.671 206.919C79.9728 207.498 80.1767 208.124 80.2746 208.77C81.7004 215.183 83.5868 235.262 83.5868 235.262C83.5868 235.262 87.4312 250.925 85.7791 252.474C84.1269 254.023 84.3335 259.07 84.3335 259.07C86.7957 263.804 85.3621 272.581 85.3621 272.581Z" fill="#444053"/>
<path d="M58.4957 316.97C58.4044 318.392 56.8158 318.479 56.8158 318.479C52.1691 319.21 51.1842 321.021 51.1842 321.021C51.1842 321.021 46.7084 325.449 40.0045 324.826C34.2896 324.278 34.8416 323.237 35.1355 321.371C35.194 321.019 35.2245 320.663 35.2268 320.306C35.2268 317.725 37.2126 316.99 40.3064 315.056C43.4001 313.122 43.3167 311.482 44.6075 310.064C45.8982 308.646 46.0293 305.894 46.0293 305.894C47.4908 303.353 51.1922 306.291 51.1922 306.291C51.3629 307.193 56.8714 307.086 56.8714 307.086C56.8714 307.086 57.6021 310.013 57.9754 310.183C58.2217 310.299 58.4083 312.594 58.4838 314.552C58.5195 315.545 58.5235 316.486 58.4957 316.97Z" fill="#B07473"/>
<path opacity="0.1" d="M58.4953 316.966C58.404 318.388 56.8154 318.475 56.8154 318.475C52.1689 319.206 51.184 321.017 51.184 321.017C51.184 321.017 46.7082 325.445 40.0044 324.821C34.2896 324.273 34.8416 323.233 35.1355 321.366C37.6891 322.002 42.574 322.883 45.4254 321.335C49.3968 319.182 52.2285 317.677 52.2285 317.677L58.4755 314.496C58.5192 315.54 58.5231 316.482 58.4953 316.966Z" fill="black"/>
<path d="M93.5158 324.629C93.2108 325.196 92.6985 325.623 92.0861 325.821C92.0501 325.834 92.0128 325.843 91.9749 325.849C90.0805 326.246 82.7653 326.246 82.7653 326.246C82.7653 326.246 75.3507 320.503 73.1267 320.372C70.9027 320.241 69.6835 318.307 69.6835 318.307C69.6835 318.307 69.7272 316.973 69.8702 315.424C70.0449 313.593 70.3507 311.452 70.8869 310.904C71.8797 309.872 72.0783 308.454 74.33 309.356C74.33 309.356 77.5072 303.752 81.2561 308.081L85.1322 313.962C85.1322 313.962 85.8629 316.413 90.7716 319.038C92.7374 320.09 93.623 321.329 93.8573 322.461C94.0185 323.201 93.8966 323.975 93.5158 324.629Z" fill="#B07473"/>
<path opacity="0.1" d="M93.5161 324.631C93.0792 325 92.5907 325.397 92.0864 325.822C92.0503 325.835 92.0131 325.844 91.9752 325.85C90.0808 326.247 82.7654 326.247 82.7654 326.247C82.7654 326.247 75.3508 320.504 73.1268 320.373C70.9028 320.242 69.6835 318.308 69.6835 318.308C69.6835 318.308 69.7272 316.974 69.8702 315.425C72.1458 316.108 75.601 317.311 76.5263 318.602C77.9441 320.588 82.2531 323.332 82.2531 323.332C82.2531 323.332 90.2873 322.562 93.8576 322.454C94.0208 323.197 93.8989 323.974 93.5161 324.631Z" fill="black"/>
<path d="M62.2443 124.414L51.6565 135.601C51.6565 135.601 38.8328 134.656 41.0726 130.868C42.2124 128.942 42.3911 124.911 42.2919 121.392C42.1965 118.005 41.8471 115.122 41.8471 115.122C41.8471 115.122 59.8336 106.17 58.4555 114.518C58.163 116.091 58.1456 117.704 58.4039 119.283C59.1863 123.501 62.2443 124.414 62.2443 124.414Z" fill="#EFB7B9"/>
<path opacity="0.1" d="M58.4521 114.518C58.1596 116.092 58.1421 117.704 58.4004 119.284C57.1704 120.53 55.7048 121.519 54.0889 122.193C52.473 122.867 50.739 123.213 48.9881 123.211C46.5416 123.211 43.9244 121.225 41.9586 120.054C41.8632 116.666 41.8434 115.122 41.8434 115.122C41.8434 115.122 59.8302 106.17 58.4521 114.518Z" fill="black"/>
<path d="M62.2442 109.268C62.2452 112.271 61.2263 115.186 59.3542 117.535C57.4821 119.883 54.8679 121.527 51.9398 122.196C49.0117 122.865 45.9432 122.519 43.237 121.216C40.5308 119.913 38.3472 117.73 37.044 115.024C35.7408 112.318 35.3951 109.25 36.0636 106.321C36.7322 103.393 38.3753 100.779 40.7238 98.9066C43.0723 97.0343 45.9871 96.015 48.9906 96.0157C51.9942 96.0164 54.9084 97.037 57.2561 98.9103C58.8117 100.152 60.0678 101.727 60.9313 103.52C61.7948 105.313 62.2436 107.278 62.2442 109.268Z" fill="#EFB7B9"/>
<path opacity="0.1" d="M80.2705 208.738C76.9703 216.593 55.739 216.756 55.739 216.756V208.194L54.4522 208.111C55.0082 210.561 53.6579 216.542 53.6579 216.542C36.8786 218.925 32.792 209.358 32.792 209.358L33.3718 206.085L46.4458 207.249C46.4458 207.249 78.2173 205.112 79.651 206.887C79.9583 207.466 80.1676 208.091 80.2705 208.738Z" fill="black"/>
<path d="M55.7391 215.725V207.159L54.4524 207.079C55.0084 209.529 53.6581 215.51 53.6581 215.51C41.0328 217.289 35.5879 212.333 33.6697 209.752C33.3266 209.308 33.0323 208.829 32.792 208.322L37.9112 179.494L39.1027 137.068L40.9494 129.625L41.3783 126.051V126.011L41.422 126.031L42.7246 126.591L50.5405 129.967L59.4644 123.267L59.5954 123.168L60.0363 122.834L60.771 123.426L62.5939 124.888L68.4478 162.671C68.4478 162.671 78.5989 191.765 80.4814 203.509C80.5568 203.977 80.6204 204.414 80.668 204.823C81.9031 215.526 55.7391 215.725 55.7391 215.725Z" fill="#E1E7EF"/>
<path d="M51.521 131.54C51.9378 131.54 52.2756 131.202 52.2756 130.785C52.2756 130.369 51.9378 130.031 51.521 130.031C51.1043 130.031 50.7665 130.369 50.7665 130.785C50.7665 131.202 51.1043 131.54 51.521 131.54Z" fill="#67647E"/>
<path d="M51.8706 138.421C52.2873 138.421 52.6252 138.083 52.6252 137.667C52.6252 137.25 52.2873 136.912 51.8706 136.912C51.4539 136.912 51.116 137.25 51.116 137.667C51.116 138.083 51.4539 138.421 51.8706 138.421Z" fill="#67647E"/>
<path d="M52.6211 149.568C53.0378 149.568 53.3757 149.23 53.3757 148.814C53.3757 148.397 53.0378 148.059 52.6211 148.059C52.2043 148.059 51.8665 148.397 51.8665 148.814C51.8665 149.23 52.2043 149.568 52.6211 149.568Z" fill="#67647E"/>
<path d="M53.8724 161.569C54.2891 161.569 54.6269 161.231 54.6269 160.815C54.6269 160.398 54.2891 160.06 53.8724 160.06C53.4556 160.06 53.1178 160.398 53.1178 160.815C53.1178 161.231 53.4556 161.569 53.8724 161.569Z" fill="#67647E"/>
<path d="M54.623 172.844C55.0397 172.844 55.3776 172.506 55.3776 172.089C55.3776 171.673 55.0397 171.335 54.623 171.335C54.2062 171.335 53.8684 171.673 53.8684 172.089C53.8684 172.506 54.2062 172.844 54.623 172.844Z" fill="#67647E"/>
<path d="M55.3779 184.851C55.7947 184.851 56.1325 184.513 56.1325 184.096C56.1325 183.679 55.7947 183.341 55.3779 183.341C54.9612 183.341 54.6234 183.679 54.6234 184.096C54.6234 184.513 54.9612 184.851 55.3779 184.851Z" fill="#67647E"/>
<path d="M55.0756 196.729C55.4924 196.729 55.8302 196.391 55.8302 195.974C55.8302 195.558 55.4924 195.22 55.0756 195.22C54.6589 195.22 54.321 195.558 54.321 195.974C54.321 196.391 54.6589 196.729 55.0756 196.729Z" fill="#67647E"/>
<path opacity="0.1" d="M41.9101 183.687C41.9101 183.687 41.0682 194.727 39.5273 197.936C37.9864 201.145 37.2874 210.156 37.2874 210.156L33.7131 209.759C33.37 209.315 33.0758 208.836 32.8354 208.329L37.9546 179.501L39.146 137.076L40.9927 129.633L41.4216 126.059C41.4356 126.049 41.452 126.042 41.4693 126.039C41.6698 125.945 41.8893 125.897 42.111 125.901C42.3327 125.904 42.5506 125.958 42.7481 126.059L42.9228 126.147C42.8712 126.293 42.8195 126.444 42.7719 126.599C41.374 130.988 40.8497 139.081 40.8497 139.081C40.8497 139.081 42.8593 153.882 43.0856 160.768C43.312 167.655 41.9101 183.687 41.9101 183.687Z" fill="black"/>
<path opacity="0.1" d="M33.0661 208.037C33.0267 208.128 32.9816 208.217 32.931 208.303C31.5371 210.658 28.0025 212.155 26.9262 212.564L26.6085 211.992L27.3551 208.494L31.3028 206.885C31.9263 207.211 32.5168 207.597 33.0661 208.037Z" fill="black"/>
<path d="M23.5109 151.698L20.2424 153.66L17.2559 166.913C17.2559 166.913 13.5267 178.159 16.3981 186.189C19.2694 194.219 20.9414 198.798 20.9414 198.798C20.9414 198.798 22.0891 207.932 23.8087 208.667C25.5284 209.402 26.279 209.815 26.279 209.815L26.6205 211.995C26.6205 211.995 31.2909 210.406 32.943 207.626C34.5951 204.847 31.7278 197.893 31.7278 197.893C31.7278 197.893 29.2615 191.983 29.893 189.231C30.5244 186.479 28.6301 179.247 28.6301 179.077C28.6301 178.906 28.4593 175.058 29.8215 172.103C31.1837 169.148 30.2822 167.889 30.2822 167.889L29.4204 159.454L23.5109 151.698Z" fill="#67647E"/>
<path opacity="0.1" d="M80.541 206.255C80.541 206.255 71.8792 209.527 69.123 206.652C66.3668 203.777 66.6567 190.37 66.6567 190.37C66.6567 190.37 64.0196 165.585 62.3516 161.514C60.6836 157.444 61.5573 128.064 61.5573 128.064C61.5573 128.064 60.4294 124.271 59.4643 123.267C59.4036 123.201 59.3341 123.143 59.2578 123.096L59.5954 123.167L60.7868 123.426L62.6097 124.887L68.4637 162.67C68.4637 162.67 78.6148 191.764 80.4973 203.507L80.541 206.255Z" fill="black"/>
<path opacity="0.1" d="M90.5253 207.119H90.426C89.3378 207.258 79.7031 208.422 79.6674 206.42C79.6675 206.188 79.6808 205.956 79.7071 205.725L88.6309 204.812L90.3982 206.631C90.43 206.75 90.4578 206.853 90.4816 206.932L90.5253 207.119Z" fill="black"/>
<path d="M81.3073 138.42L87.6417 141.72C87.6417 141.72 92.8959 155.366 93.7577 161.219C93.7577 161.219 97.6576 176.894 94.9491 183.34C92.2406 189.785 92.4828 202.585 92.4828 202.585C92.4828 202.585 90.934 204.936 90.3025 204.304C89.6711 203.673 90.5329 206.77 90.5329 206.77C90.5329 206.77 79.7187 208.208 79.6671 206.079C79.6155 203.951 82.1492 193.8 82.1492 193.8C82.1492 193.8 82.8363 169.647 81.8593 165.862C80.8823 162.077 81.3073 138.42 81.3073 138.42Z" fill="#67647E"/>
<path opacity="0.1" d="M62.411 164.147C62.411 164.147 58.8367 172.864 57.7049 173.44C56.573 174.016 57.9352 176.307 57.9352 176.307C57.9352 176.307 64.4205 167.245 62.411 164.147ZM60.2903 133.564C60.33 133.397 56.0409 137.769 54.8971 138.421C53.7533 139.072 59.0671 138.385 60.2903 133.564ZM48.3443 163.456C48.3443 163.456 41.8033 167.69 42.6612 169.358C43.519 171.025 48.3443 163.456 48.3443 163.456ZM60.2307 225.191C60.2307 225.191 65.7907 228.765 74.4603 229.666L60.2307 225.191ZM46.8629 233.797C46.8629 233.797 52.0258 240.278 54.3808 240.452C56.7359 240.627 46.8629 233.797 46.8629 233.797ZM54.0909 259.213C53.8605 259.328 51.164 265.063 48.4118 265.238C45.6596 265.412 54.0909 259.213 54.0909 259.213ZM78.0187 271.774C78.0187 271.774 83.1339 270.631 84.2697 274.3C84.2697 274.3 83.9281 273.152 78.0187 271.774ZM74.5755 292.775C74.5755 292.775 80.7709 291.512 82.0894 293.236C83.4079 294.959 74.5755 292.775 74.5755 292.775ZM57.0377 295.702C57.0377 295.757 50.7271 296.965 50.9773 297.767C51.2275 298.569 57.7049 298.454 57.9352 297.191C57.9796 297.034 57.9913 296.87 57.9696 296.708C57.9479 296.547 57.8933 296.391 57.8092 296.252C57.7251 296.112 57.6132 295.991 57.4805 295.897C57.3478 295.802 57.1971 295.736 57.0377 295.702ZM72.5103 301.15C72.5103 301.15 82.8757 299.888 82.2244 302.068C81.5731 304.248 72.5103 301.15 72.5103 301.15ZM18.233 173.44C18.2925 173.611 25.0598 174.528 25.9772 176.708C25.9772 176.708 19.3251 173.611 18.2925 173.611M27.7564 191.168C27.7564 191.168 22.1329 192.947 22.53 195.644C22.9272 198.34 21.9621 194.385 27.7564 191.168ZM25.1353 204.822C25.1353 204.822 27.1845 202.01 29.1345 202.526C31.0845 203.042 25.1353 204.822 25.1353 204.822ZM57.2521 98.9099C57.0539 99.1011 56.8324 99.2665 56.5929 99.4024C54.9606 100.348 54.5238 101.785 53.7414 103.481C53.0266 105.018 52.2362 106.658 50.7867 107.516C48.9201 108.64 46.4578 108.227 44.5158 109.212C43.6551 109.663 42.9484 110.36 42.4858 111.214C42.0231 112.069 41.8256 113.042 41.9185 114.009C42.0447 114.755 42.2307 115.489 42.4745 116.205C42.9127 117.754 43.1122 119.361 43.0662 120.971C43.0721 121.02 43.0721 121.069 43.0662 121.118C41.4026 120.288 39.9321 119.117 38.7503 117.681C37.5686 116.246 36.702 114.578 36.2068 112.786C35.7117 110.994 35.5991 109.118 35.8763 107.279C36.1535 105.441 36.8143 103.681 37.8159 102.115C38.8174 100.548 40.1373 99.2102 41.6897 98.1871C43.2421 97.164 44.9924 96.4789 46.8269 96.1762C48.6614 95.8736 50.539 95.9602 52.3378 96.4305C54.1366 96.9008 55.8164 97.7442 57.268 98.9059L57.2521 98.9099Z" fill="black"/>
<path d="M56.9068 94.9233C55.4493 91.8614 52.2841 89.9274 49.0275 88.9663C46.5414 88.2475 43.8448 88.0132 41.3786 88.8035C39.9727 89.2522 38.6899 89.9949 37.3754 90.678C34.9171 91.921 32.2125 92.9019 30.3658 94.9432C29.9369 95.4158 29.5398 96.0274 29.6669 96.6548C29.7622 97.1234 30.1275 97.4809 30.3619 97.8979C30.8901 98.8271 30.759 99.9987 30.3976 101.011C30.0362 102.024 29.508 102.969 29.2538 104.01C28.9997 105.05 29.0989 106.269 29.8694 107.012C30.2416 107.307 30.6287 107.583 31.0291 107.838C31.45 108.204 31.8199 108.625 32.1291 109.089L34.3174 112.08C35.3466 113.407 36.2632 114.817 37.0577 116.297C37.6057 117.381 38.0267 118.541 38.7535 119.51C39.4802 120.479 40.62 121.257 41.8274 121.15C41.9206 121.153 42.0133 121.134 42.0976 121.094C42.1819 121.054 42.2554 120.994 42.3119 120.92C42.3593 120.825 42.3812 120.72 42.3754 120.614C42.4248 119.004 42.2252 117.397 41.7837 115.848C41.5398 115.132 41.3539 114.398 41.2277 113.652C41.1354 112.685 41.3331 111.712 41.7956 110.858C42.2582 110.004 42.9646 109.306 43.825 108.855C45.771 107.874 48.2333 108.287 50.0998 107.163C51.5494 106.285 52.3397 104.661 53.0546 103.124C53.8488 101.444 54.2738 99.9908 55.906 99.0456C57.5383 98.1004 57.713 96.5317 56.9068 94.9233Z" fill="#585268"/>
<path opacity="0.1" d="M50.9691 311.553C50.9691 311.553 52.9866 314.134 52.4703 315.596C51.954 317.057 50.9691 311.553 50.9691 311.553ZM78.4001 318.006C78.4001 318.006 78.8489 314.543 80.6559 314.511C82.4629 314.48 82.5503 314.325 83.9284 314.853C85.3065 315.381 86.5972 316.207 86.1882 316.334C85.7791 316.461 83.8053 314.349 81.8195 315.425C80.558 316.111 79.4055 316.981 78.4001 318.006ZM44.9205 134.291L50.5759 130.32C50.5759 130.32 42.2715 125.411 41.2826 126.102C40.2937 126.793 39.6146 132.989 39.6146 132.989L44.9205 134.291Z" fill="black"/>
<path d="M44.8966 134.032L50.5757 129.965C50.5757 129.965 42.2715 125.06 41.2826 125.747C40.2937 126.434 39.6146 132.979 39.6146 132.979L44.8966 134.032Z" fill="#E1E7EF"/>
<path opacity="0.03" d="M44.8966 134.032L50.5757 129.965C50.5757 129.965 42.2715 125.06 41.2826 125.747C40.2937 126.434 39.6146 132.979 39.6146 132.979L44.8966 134.032Z" fill="black"/>
<path d="M42.2202 125.797L42.0494 125.709C41.7968 125.58 41.5123 125.528 41.2304 125.557C40.9484 125.587 40.6811 125.698 40.4608 125.876L23.4315 139.692C23.4315 139.692 19.7302 144.812 20.2544 153.648L30.2941 167.877C30.2941 167.877 31.4418 163.056 32.8199 163.973C32.8199 163.973 34.7698 188.644 32.8199 192.202C30.8699 195.76 30.0081 209.068 30.0081 209.068L36.6046 209.815C36.6046 209.815 37.2917 200.808 38.8405 197.595C40.3893 194.382 41.2233 183.342 41.2233 183.342C41.2233 183.342 42.6173 167.301 42.387 160.411C42.1566 153.521 40.1511 138.727 40.1511 138.727C40.1511 138.727 40.711 130.054 42.2202 125.797Z" fill="#67647E"/>
<path opacity="0.1" d="M59.1817 131.774L52.1086 129.153C52.1086 129.153 61.1198 119.288 62.2397 124.761L59.1817 131.774Z" fill="black"/>
<path d="M59.1817 131.419L52.1086 128.802C52.1086 128.802 61.1198 118.933 62.2397 124.406L59.1817 131.419Z" fill="#E1E7EF"/>
<path opacity="0.03" d="M59.1817 131.419L52.1086 128.802C52.1086 128.802 61.1198 118.933 62.2397 124.406L59.1817 131.419Z" fill="black"/>
<path opacity="0.1" d="M58.9555 123.039C59.0968 123.013 59.2425 123.043 59.3623 123.122L58.9555 123.039Z" fill="black"/>
<path d="M59.6425 122.345L78.4194 126.396C78.4194 126.396 83.5823 127.544 87.3114 140.506C91.0406 153.469 82.2042 169.358 82.2042 169.358L80.2542 167.702L81.2312 205.569C81.2312 205.569 72.5655 208.837 69.8133 205.966C67.0611 203.094 67.3431 189.683 67.3431 189.683C67.3431 189.683 64.7061 164.89 63.0381 160.808C61.3701 156.725 62.2438 127.357 62.2438 127.357C62.2438 127.357 60.691 122.119 59.6425 122.345Z" fill="#67647E"/>
<path opacity="0.1" d="M76.8116 146.476C76.5455 146.722 76.2397 158.18 77.3875 166.901C78.0918 172.212 79.1788 177.465 80.6401 182.619L78.9363 147.671C78.9363 147.671 77.6138 145.717 76.8116 146.476ZM74.5162 136.607C74.9768 136.893 76.9864 141.655 76.065 143.609C75.1436 145.563 74.5162 136.607 74.5162 136.607ZM56.7958 94.9237C55.8762 93.1083 54.4407 91.605 52.6695 90.6028C53.9845 91.5406 55.0473 92.7889 55.7632 94.2366C56.5575 95.845 56.3351 97.4574 54.7585 98.3708C53.1818 99.2842 52.6894 100.754 51.911 102.449C51.1961 103.986 50.4018 105.627 48.9523 106.484C47.0857 107.612 44.6274 107.199 42.6815 108.176C41.8208 108.628 41.1142 109.326 40.6517 110.181C40.1891 111.036 39.9916 112.01 40.0842 112.978C40.2085 113.724 40.3945 114.458 40.6402 115.174C41.0809 116.722 41.2792 118.33 41.2279 119.939C41.2348 120.045 41.2143 120.15 41.1683 120.245C41.1119 120.319 41.0384 120.379 40.9541 120.419C40.8698 120.459 40.7771 120.479 40.6838 120.475C40.1977 120.514 39.7101 120.423 39.27 120.213C39.5909 120.531 39.9737 120.779 40.3946 120.942C40.8154 121.105 41.2653 121.18 41.7164 121.162C41.8097 121.166 41.9024 121.146 41.9867 121.106C42.071 121.066 42.1444 121.006 42.2009 120.932C42.2466 120.837 42.2684 120.732 42.2645 120.626C42.3119 119.017 42.1123 117.41 41.6727 115.861C41.427 115.145 41.2411 114.411 41.1167 113.665C41.0244 112.697 41.2221 111.725 41.6847 110.87C42.1472 110.016 42.8537 109.319 43.714 108.867C45.66 107.886 48.1183 108.299 49.9848 107.175C51.4344 106.298 52.2287 104.673 52.9435 103.136C53.7378 101.457 54.1588 100.003 55.791 99.0579C57.4233 98.1127 57.598 96.5321 56.7958 94.9237Z" fill="black"/>
<path opacity="0.1" d="M384.526 304.746C393.518 304.746 400.808 303.745 400.808 302.511C400.808 301.276 393.518 300.275 384.526 300.275C375.533 300.275 368.243 301.276 368.243 302.511C368.243 303.745 375.533 304.746 384.526 304.746Z" fill="#00C7FA"/>
<path opacity="0.1" d="M256.882 325.082C263.273 325.082 268.454 324.37 268.454 323.493C268.454 322.616 263.273 321.905 256.882 321.905C250.49 321.905 245.309 322.616 245.309 323.493C245.309 324.37 250.49 325.082 256.882 325.082Z" fill="#00C7FA"/>
<path opacity="0.1" d="M153.33 313.3C159.721 313.3 164.903 312.589 164.903 311.712C164.903 310.835 159.721 310.123 153.33 310.123C146.938 310.123 141.757 310.835 141.757 311.712C141.757 312.589 146.938 313.3 153.33 313.3Z" fill="#00C7FA"/>
<path d="M159.704 308.1C160.433 307.506 160.964 306.704 161.225 305.8C161.424 304.891 161.035 303.795 160.161 303.461C159.184 303.088 158.14 303.767 157.349 304.45C156.559 305.133 155.649 305.916 154.617 305.769C155.149 305.285 155.547 304.673 155.773 303.99C155.998 303.307 156.043 302.578 155.904 301.873C155.857 301.581 155.733 301.307 155.546 301.079C155.002 300.499 154.017 300.749 153.37 301.206C151.305 302.655 150.729 305.463 150.717 307.985C150.51 307.075 150.685 306.126 150.677 305.205C150.669 304.283 150.419 303.219 149.629 302.735C149.143 302.466 148.595 302.329 148.04 302.337C147.115 302.302 146.078 302.397 145.447 303.076C144.653 303.918 144.863 305.332 145.546 306.253C146.229 307.175 147.274 307.766 148.235 308.406C149.004 308.864 149.659 309.49 150.153 310.236C150.213 310.341 150.261 310.451 150.296 310.566H156.118C157.418 309.907 158.624 309.078 159.704 308.1ZM391.129 299.72C391.863 299.128 392.399 298.326 392.666 297.421C392.865 296.512 392.476 295.435 391.602 295.082C390.625 294.709 389.58 295.388 388.79 296.071C388 296.754 387.09 297.536 386.054 297.389C386.588 296.907 386.987 296.294 387.212 295.611C387.438 294.928 387.482 294.199 387.341 293.493C387.298 293.201 387.174 292.925 386.983 292.699C386.443 292.119 385.458 292.37 384.811 292.826C382.746 294.276 382.17 297.083 382.158 299.605C381.947 298.696 382.126 297.747 382.118 296.825C382.11 295.904 381.856 294.84 381.07 294.355C380.584 294.086 380.036 293.949 379.481 293.958C378.552 293.922 377.519 294.018 376.884 294.697C376.09 295.539 376.3 296.952 376.987 297.874C377.674 298.795 378.715 299.387 379.676 300.026C380.445 300.485 381.1 301.11 381.594 301.857C381.652 301.962 381.7 302.072 381.737 302.187H387.555C388.851 301.528 390.053 300.698 391.129 299.72ZM260.022 318.286C260.751 317.691 261.282 316.89 261.547 315.987C261.741 315.073 261.352 314.001 260.482 313.648C259.505 313.274 258.461 313.95 257.671 314.637C256.88 315.324 255.971 316.098 254.934 315.955C255.467 315.472 255.866 314.86 256.092 314.177C256.317 313.494 256.362 312.764 256.221 312.059C256.176 311.767 256.053 311.492 255.864 311.265C255.32 310.685 254.339 310.935 253.687 311.392C251.622 312.846 251.046 315.649 251.034 318.175C250.828 317.266 251.003 316.316 250.999 315.395C250.995 314.474 250.737 313.409 249.95 312.925C249.464 312.657 248.917 312.52 248.362 312.528C247.432 312.496 246.4 312.587 245.764 313.267C244.97 314.112 245.181 315.526 245.868 316.444C246.555 317.361 247.595 317.953 248.552 318.596C249.331 319.06 249.994 319.696 250.49 320.455C250.547 320.559 250.595 320.668 250.633 320.78H256.447C257.746 320.114 258.948 319.275 260.022 318.286Z" fill="#00C7FA"/>
<path d="M376.724 137.074C371.513 136.971 366.915 133.278 364.309 128.798C363.627 127.728 363.198 126.516 363.054 125.255C363.073 124.968 363.121 124.683 363.197 124.406C363.365 123.986 363.497 123.553 363.595 123.111C363.616 122.934 363.616 122.755 363.595 122.579V122.555C363.722 121.594 363.158 120.669 362.451 120.005C361.744 119.342 360.882 118.862 360.155 118.222C357.915 116.256 357.236 113.103 357.193 110.101V109.942C357.216 108.659 357.32 107.369 357.308 106.082C357.326 105.351 357.294 104.62 357.212 103.894C356.998 102.075 356.307 100.224 354.877 99.0646C351.148 96.0424 344.877 99.1877 341.021 96.3283C340.08 95.6333 339.321 94.5968 338.186 94.3427C337.324 94.1362 336.43 94.4141 335.592 94.6921C332.749 95.6294 329.579 96.8645 328.467 99.6285C327.832 101.217 328.011 103 327.427 104.597C327.03 105.665 326.327 106.582 325.803 107.599C325.37 108.361 325.16 109.229 325.195 110.105C325.151 110.558 325.215 111.015 325.382 111.439C325.578 111.945 325.894 112.396 326.303 112.754C326.154 113.069 325.967 113.365 325.747 113.635C325.02 114.525 323.904 115.16 323.15 116.018C321.752 117.638 321.803 119.843 322.495 121.749C323.186 123.655 324.425 125.39 325.274 127.245C325.644 128.039 325.942 128.953 325.556 129.755C325.29 130.311 324.734 130.732 324.301 131.212C323.667 131.924 323.27 132.815 323.166 133.762C314.655 135.704 314.651 142.539 314.651 142.539L310.06 154.111C310.06 154.111 309.325 156.057 308.471 158.627L303.031 157.654L306.788 163.984C306.069 166.561 305.564 168.952 305.731 170.151C305.731 170.151 304.043 178.094 307.046 179.48L313.678 182.462C313.964 182.636 314.273 182.77 314.595 182.86L314.865 182.979C314.962 183.026 315.068 183.051 315.175 183.051C315.283 183.051 315.389 183.026 315.485 182.979H315.592C315.727 182.992 315.863 182.973 315.989 182.923C316.138 182.845 316.255 182.717 316.319 182.562C316.32 182.55 316.32 182.538 316.319 182.526L318.305 181.95L319.989 183.936C320.747 184.468 321.49 184.933 322.216 185.35L319.627 211.243C319.627 211.243 319.206 245.658 317.939 253.494C317.467 256.397 317.463 258.374 317.641 259.721L317.594 259.808C317.908 262.02 318.722 262.457 318.722 262.457V262.425L318.769 262.457C319.153 261.452 319.608 260.477 320.132 259.538V260.102C320.108 263.025 320.016 267.111 319.734 269.768C319.218 274.287 321.049 289.259 321.049 289.259L321.68 302.881C321.783 305.192 321.247 307.486 320.132 309.513C318.634 312.233 316.684 316.058 316.557 317.754C316.551 317.846 316.551 317.939 316.557 318.032L313.237 321.896C313.237 321.896 311.966 323.854 314.826 324.644C316.363 325.073 319.02 324.644 321.148 324.139C322.079 323.926 322.91 323.403 323.506 322.657C324.101 321.91 324.427 320.984 324.429 320.029C324.977 318.153 325.898 316.406 327.137 314.894L327.673 318.028L331.247 318.913L331.704 310.323C331.89 309.84 331.974 309.323 331.95 308.806C332.653 302.698 330.294 303.246 330.294 303.246C330.354 303.304 330.395 303.379 330.409 303.461C330.37 303.393 330.33 303.322 330.294 303.25C328.845 300.391 329.556 295.705 329.556 295.705C329.556 295.705 331.434 282.091 332.093 278.497C332.558 275.959 332.367 267.643 332.213 262.985C332.213 262.79 332.213 262.588 332.193 262.425C337.725 262.354 344.504 262.163 349.27 261.702V262.266L348.388 294.434C348.329 296.484 347.914 298.507 347.161 300.415C347.161 300.45 347.129 300.486 347.117 300.522C346.063 303.209 345.461 306.053 345.338 308.937L344.941 319.159V319.441C344.23 319.715 343.11 320.506 343.078 322.797C343.031 326.153 348.944 325.033 348.944 325.033C354.857 325.033 354.901 318.877 354.901 318.877C354.901 318.877 355.092 313.234 355.37 309.457C355.648 305.681 354.48 306.515 354.48 306.515L354.393 317.237V317.321V307.905L354.484 306.539V306.499L354.504 306.209L355.239 295.129C355.239 295.129 360.683 276.662 361.529 273.12C362.129 270.606 361.879 263.021 361.68 258.823C361.68 258.628 361.68 258.446 361.656 258.267C363.34 258.116 364.834 258.1 365.433 258.1H365.707C365.707 258.1 365.425 228.442 364.722 217.251C364.019 206.06 362.892 195.846 360.072 192.768C358.372 190.909 356.001 185.167 354.389 180.914C357.751 182.37 361.241 183.513 364.814 184.329C373.733 186.195 372.514 178.451 372.514 178.451L371.609 163.809H371.668C371.636 159.973 371.307 156.145 370.683 152.36C370.215 149.457 369.492 146.454 368.388 144.02C369.357 143.651 370.31 143.226 371.247 142.829C373.67 141.76 376.41 140.243 376.752 137.63H376.633C376.677 137.447 376.708 137.262 376.724 137.074ZM321.434 158.257C321.458 159.77 321.398 162.391 321.311 165.294L318.479 161.514L321.319 156.907L321.434 158.257ZM360.576 171.645L355.858 170.127C356.696 168.823 357.673 167.614 358.773 166.522L359.17 166.124L359.023 166.156L359.254 165.95L359.389 165.918L359.17 166.124L359.429 166.073C359.713 167.258 360.263 168.363 361.037 169.305C362.721 171.18 360.56 171.645 360.56 171.645H360.576Z" fill="url(#paint4_linear_462_842)"/>
<path d="M331.903 307.76L331.347 318.221L327.828 317.343L327.086 312.991L331.903 307.76Z" fill="#A27772"/>
<path opacity="0.1" d="M331.903 307.76L331.347 318.221L327.828 317.343L327.086 312.991L331.903 307.76Z" fill="black"/>
<path d="M344.818 319.611L350.187 320.723L354.159 317.204V307.296L354.246 305.941V305.902L354.266 305.616L354.989 294.615C354.989 294.615 360.358 276.279 361.192 272.773C361.784 270.275 361.538 262.741 361.343 258.579C361.264 256.871 361.192 255.732 361.192 255.732L349.341 252.86L349.091 261.995L348.225 293.924C348.166 295.959 347.755 297.967 347.01 299.861L346.97 299.969C345.939 302.643 345.357 305.471 345.251 308.336L344.854 318.483V318.765L344.818 319.611Z" fill="#CC818C"/>
<path opacity="0.1" d="M354.262 305.616V305.898L354.282 305.612L354.262 305.616ZM344.818 319.607L350.187 320.719L354.159 317.2V316.358C354.147 316.545 354.088 316.727 353.988 316.885C353.888 317.044 353.75 317.176 353.587 317.268L353.531 317.299C351.682 318.279 349.586 318.693 347.503 318.491L345.406 318.312C345.217 318.333 345.031 318.378 344.854 318.447V318.729L344.818 319.607Z" fill="black"/>
<path d="M353.545 317.581L353.601 317.549C353.776 317.451 353.922 317.308 354.023 317.135C354.124 316.962 354.177 316.765 354.176 316.564L354.264 305.897C354.264 305.897 355.423 305.075 355.145 308.824C354.867 312.573 354.681 318.177 354.681 318.177C354.681 318.177 354.637 324.289 348.803 324.289C348.803 324.289 342.969 325.397 343.013 322.065C343.057 318.733 345.424 318.594 345.424 318.594L347.516 318.776C349.6 318.975 351.695 318.559 353.545 317.581Z" fill="#B07473"/>
<path d="M316.85 317.343C316.989 319.75 324.07 318.36 324.07 318.36L328.836 309.103C328.836 309.103 332.807 306.045 330.822 303.36C330.714 303.215 330.616 303.062 330.528 302.903V302.88C330.484 302.808 330.448 302.737 330.409 302.661C328.979 299.826 329.682 295.175 329.682 295.175C329.682 295.175 331.533 281.673 332.184 278.099C332.641 275.577 332.454 267.32 332.299 262.698C332.24 260.78 332.184 259.485 332.184 259.485L320.421 256.34V259.846C320.397 262.746 320.309 266.804 320.023 269.441C319.515 273.933 321.322 288.793 321.322 288.793L321.946 302.32C322.034 304.609 321.495 306.88 320.385 308.884C318.907 311.585 316.985 315.385 316.85 317.069C316.842 317.16 316.842 317.252 316.85 317.343Z" fill="#CC818C"/>
<path opacity="0.1" d="M316.853 317.344C316.992 319.751 324.073 318.361 324.073 318.361L328.839 309.104C328.839 309.104 332.81 306.046 330.824 303.361C330.716 303.216 330.618 303.063 330.531 302.904C330.467 304.306 328.942 307.805 328.942 307.805C328.942 307.805 325.006 315.68 323.779 317.483C322.552 319.286 317.087 317.15 316.885 317.086C316.867 317.171 316.856 317.257 316.853 317.344Z" fill="black"/>
<path d="M330.401 302.65C330.401 302.65 332.729 302.11 332.038 308.174C332.063 308.863 331.905 309.547 331.581 310.156C331.257 310.765 330.777 311.277 330.191 311.641C328.527 312.689 325.953 314.941 324.655 319.322C324.656 320.268 324.337 321.186 323.75 321.928C323.163 322.67 322.343 323.191 321.422 323.408C319.321 323.897 316.7 324.33 315.183 323.905C312.359 323.11 313.594 321.176 313.594 321.176L316.835 317.332C316.835 317.332 322.482 319.556 323.733 317.749C324.984 315.942 328.896 308.071 328.896 308.071C328.896 308.071 331.108 303.158 330.401 302.65Z" fill="#B07473"/>
<path opacity="0.1" d="M349.356 253.961L349.105 263.095C352.283 262.789 354.522 262.36 354.912 261.76C355.742 260.47 358.776 259.922 361.357 259.699C361.278 257.992 361.206 256.852 361.206 256.852L349.356 253.961ZM320.412 260.942C320.717 260.326 321.162 259.791 321.711 259.378C322.962 258.683 322.827 263.822 322.827 263.822C322.827 263.822 326.977 263.861 332.295 263.794C332.235 261.872 332.179 260.581 332.179 260.581L320.416 257.436C320.416 257.436 320.432 258.901 320.412 260.942Z" fill="black"/>
<path d="M319.074 262.166C319.074 262.166 320.464 258.405 321.711 257.714C322.958 257.023 322.827 262.158 322.827 262.158C322.827 262.158 353.383 262.436 354.912 260.073C356.441 257.71 365.329 257.853 365.329 257.853C365.329 257.853 365.051 228.406 364.356 217.294C363.661 206.182 362.549 196.043 359.773 192.989C357.974 191.003 355.405 184.613 353.84 180.348C352.978 178.017 352.41 176.321 352.41 176.321L323.244 177.989L323.006 180.348L319.908 211.325C319.908 211.325 319.511 245.478 318.24 253.27C316.969 261.062 319.074 262.166 319.074 262.166Z" fill="#444053"/>
<g opacity="0.1">
<path d="M352.56 260.092C354.085 257.733 362.977 257.872 362.977 257.872C362.977 257.872 362.699 228.424 362.004 217.312C361.309 206.2 360.197 196.061 357.421 193.007C355.622 191.021 353.052 184.632 351.487 180.366C350.765 178.408 350.248 176.899 350.101 176.466L352.365 176.339C352.365 176.339 352.933 178.035 353.795 180.366C355.383 184.632 357.929 191.029 359.728 193.007C362.508 196.061 363.616 206.2 364.311 217.312C365.006 228.424 365.268 257.852 365.268 257.852C365.268 257.852 356.38 257.709 354.855 260.092C353.549 262.109 331.062 262.201 324.533 262.185C332.905 262.145 351.368 261.895 352.56 260.092ZM319.346 257.709C319.91 257.395 320.192 258.265 320.331 259.297C319.828 260.214 319.388 261.164 319.017 262.141C319.017 262.141 318.222 261.708 317.905 259.512C318.345 258.73 318.858 257.983 319.346 257.709Z" fill="black"/>
</g>
<path d="M328.088 105.072C326.07 107.829 328.112 111.74 325.947 114.417C325.232 115.303 324.132 115.934 323.386 116.8C322.004 118.412 322.059 120.596 322.738 122.491C323.417 124.385 324.645 126.104 325.487 127.947C325.852 128.741 326.146 129.643 325.769 130.437C325.506 130.989 324.974 131.406 324.529 131.887C323.139 133.439 323.1 135.6 323.846 137.427C324.593 139.253 326.027 140.838 327.421 142.379C327.977 142.99 328.68 143.662 329.605 143.646C330.092 143.606 330.564 143.451 330.979 143.193C334.273 141.459 336.772 138.522 337.957 134.992C338.958 131.672 338.747 128.104 337.361 124.925C336.17 122.117 334.232 119.425 334.216 116.454C334.216 114.099 335.427 111.851 335.642 109.504C335.904 106.657 334.216 102.13 330.777 100.887C331.003 102.725 329.128 103.675 328.088 105.072Z" fill="#585268"/>
<path opacity="0.1" d="M328.088 105.072C326.07 107.829 328.112 111.74 325.947 114.417C325.232 115.303 324.132 115.934 323.386 116.8C322.004 118.412 322.059 120.596 322.738 122.491C323.417 124.385 324.645 126.104 325.487 127.947C325.852 128.741 326.146 129.643 325.769 130.437C325.506 130.989 324.974 131.406 324.529 131.887C323.139 133.439 323.1 135.6 323.846 137.427C324.593 139.253 326.027 140.838 327.421 142.379C327.977 142.99 328.68 143.662 329.605 143.646C330.092 143.606 330.563 143.451 330.979 143.193C334.273 141.459 336.772 138.522 337.957 134.992C338.958 131.672 338.747 128.104 337.361 124.925C336.17 122.117 334.232 119.425 334.216 116.454C334.216 114.099 335.427 111.851 335.641 109.504C335.904 106.657 334.216 102.13 330.776 100.887C331.003 102.725 329.128 103.675 328.088 105.072ZM350.483 205.197C346.44 205.411 342.635 207.147 339.097 209.113C335.558 211.078 332.135 213.322 328.326 214.704M347.969 214.72C343.969 215.104 340.241 216.915 337.468 219.823C336.487 220.864 335.641 222.031 334.617 223.028C333.046 224.554 331.108 225.649 328.989 226.205M348.799 221.964C345.574 222.858 342.656 224.618 340.359 227.051C339.74 227.718 339.168 228.437 338.556 229.1C335.209 232.674 330.483 234.6 325.919 236.403" fill="black"/>
<path d="M348.451 121.456C348.541 124.687 348.819 127.909 349.285 131.107C349.658 133.386 350.19 135.416 350.953 136.317C353.173 138.958 340.119 142.501 340.119 142.501L332.41 136.543C332.41 136.543 338.522 130.916 335.675 125.424C332.827 119.931 348.451 121.456 348.451 121.456Z" fill="#CC818C"/>
<path opacity="0.1" d="M323.004 180.348H353.839C352.977 178.017 352.409 176.321 352.409 176.321L323.242 177.989L323.004 180.348Z" fill="black"/>
<path d="M321.021 179.79H353.984C353.058 176.478 353.984 173.408 355.306 171.053C356.23 169.398 357.393 167.889 358.757 166.573L358.984 166.371L370.501 163.817L371.12 163.682C371.12 163.682 371.212 142.757 363.805 139.886C356.398 137.015 351.95 133.135 351.95 133.135L341.767 136.28L334.265 132.488C331.859 135.081 325.469 134.076 325.469 134.076C315.004 135.267 315.004 143.15 315.004 143.15C315.004 143.15 321.116 157.411 321.581 157.411C322.045 157.411 321.021 179.79 321.021 179.79Z" fill="#67647E"/>
<path opacity="0.1" d="M332.4 166.487C332.4 166.487 325.677 164.998 323.389 162.393L332.4 166.487ZM366.297 158.68L358.513 165.07C358.569 165.575 358.655 166.076 358.771 166.571L358.997 166.368L370.514 163.815L366.297 158.68ZM345.184 177.571C345.184 177.571 346.892 178.532 349.505 179.791H353.985C353.06 176.479 353.985 173.409 355.308 171.054L347.393 168.493C350.093 170.995 345.184 177.571 345.184 177.571Z" fill="black"/>
<path d="M319.626 140.624L314.995 143.122L310.456 154.603C310.456 154.603 305.734 167.196 306.195 170.532C306.195 170.532 304.531 178.4 307.493 179.79L315.222 183.284C315.358 183.346 315.51 183.364 315.657 183.335C315.803 183.305 315.937 183.231 316.039 183.122C316.141 183.013 316.207 182.874 316.226 182.726C316.245 182.578 316.218 182.427 316.147 182.296C315.047 180.211 313.84 176.954 315.75 175.147L313.526 170.52L321.576 157.383L324.257 152.864L319.626 140.624Z" fill="#67647E"/>
<path opacity="0.1" d="M329.916 163.859C330.313 165.495 331.671 168.009 336.151 168.958L341.083 172.985L346.314 175.368L348.442 176.333L349.348 169.804L347.295 168.68L344.912 167.374C344.912 167.374 339.515 157.588 330.964 161.723C330.572 161.905 330.253 162.217 330.063 162.606C329.872 162.994 329.82 163.437 329.916 163.859Z" fill="black"/>
<path d="M330.203 163.3C330.601 164.936 331.959 167.45 336.439 168.399L341.371 172.43L346.602 174.813L348.73 175.778L349.636 169.249L347.583 168.129L345.2 166.819C345.2 166.819 339.802 157.037 331.252 161.168C330.86 161.35 330.542 161.661 330.352 162.049C330.161 162.437 330.109 162.879 330.203 163.3Z" fill="#CC818C"/>
<path opacity="0.1" d="M339.833 129.931C346.431 129.931 351.779 124.583 351.779 117.985C351.779 111.388 346.431 106.04 339.833 106.04C333.236 106.04 327.887 111.388 327.887 117.985C327.887 124.583 333.236 129.931 339.833 129.931Z" fill="black"/>
<path d="M339.833 129.652C346.431 129.652 351.779 124.304 351.779 117.707C351.779 111.109 346.431 105.761 339.833 105.761C333.236 105.761 327.887 111.109 327.887 117.707C327.887 124.304 333.236 129.652 339.833 129.652Z" fill="#CC818C"/>
<path opacity="0.1" d="M347.232 143.225L343.658 136.244C343.658 136.244 348.916 134.123 349.297 131.661C349.678 129.199 354.333 134.544 353.324 136.315C352.315 138.087 347.232 143.225 347.232 143.225Z" fill="black"/>
<path d="M347.232 142.67L343.658 135.688C343.658 135.688 348.916 133.568 349.297 131.105C349.678 128.643 354.333 133.993 353.324 135.76C352.315 137.527 347.232 142.67 347.232 142.67Z" fill="#67647E"/>
<path d="M317.844 160.702L337.701 187.386C337.701 187.386 330.386 191.357 320.291 184.237L315.922 179.054L303.511 158.125L317.844 160.702Z" fill="#F6F8FB"/>
<path d="M313.932 175.209L315.739 175.161C315.739 175.161 326.78 164.439 329.488 169.864C332.197 175.288 322.613 180.348 322.613 180.348L319.698 181.936L315.878 183.048L313.447 179.784L313.932 175.209Z" fill="#CC818C"/>
<path opacity="0.1" d="M316.6 180.999C316.767 181.614 316.926 182.293 316.648 182.865C316.584 183.02 316.467 183.146 316.318 183.223C316.193 183.275 316.056 183.294 315.921 183.278C314.965 183.197 314.075 182.755 313.431 182.043C312.796 181.336 312.253 180.552 311.815 179.708C311.322 178.854 310.81 177.901 310.989 176.928C311.183 175.864 312.132 175.125 313.038 174.545C314.869 173.334 314.912 174.744 315.329 176.301L316.6 180.999Z" fill="black"/>
<path d="M316.319 180.999C316.485 181.614 316.644 182.293 316.366 182.865C316.302 183.02 316.185 183.146 316.037 183.223C315.911 183.275 315.774 183.294 315.639 183.278C314.683 183.197 313.793 182.755 313.149 182.043C312.514 181.336 311.971 180.552 311.533 179.708C311.04 178.854 310.528 177.901 310.707 176.928C310.901 175.864 311.851 175.125 312.756 174.545C314.587 173.334 314.631 174.744 315.048 176.301L316.319 180.999Z" fill="#67647E"/>
<path opacity="0.1" d="M321.578 157.383L322.504 155.823L321.693 158.722L321.578 157.383ZM346.602 174.798L348.731 175.763L349.637 169.234L347.583 168.114C348.985 169.726 347.758 172.721 346.602 174.798ZM355.145 167.221C355.145 167.221 348.27 167.637 345.355 165.763L355.145 167.221Z" fill="black"/>
<g opacity="0.1">
<path d="M354.292 171.606C355.219 169.952 356.383 168.443 357.747 167.127C358.074 166.921 358.414 166.735 358.764 166.571L369.487 164.371L370.106 164.236C370.106 164.236 370.202 143.311 362.791 140.44C358.638 138.856 354.744 136.662 351.238 133.931L352.052 133.681C352.052 133.681 356.496 137.568 363.903 140.432C371.31 143.295 371.226 164.236 371.226 164.236H370.114L359.137 166.336L358.518 166.928C357.141 168.305 355.961 169.864 355.011 171.563C353.562 174.256 353.232 177.412 354.093 180.347H352.958C352.044 177.035 352.985 173.965 354.292 171.606ZM325.026 134.677C325.205 134.654 325.376 134.626 325.558 134.606C326.31 134.712 327.067 134.774 327.826 134.793C326.891 134.818 325.956 134.78 325.026 134.677ZM340.745 136.826L333.962 133.407C334.103 133.296 334.236 133.175 334.359 133.045L341.436 136.619L340.745 136.826Z" fill="black"/>
</g>
<path d="M366.579 158.125L371.119 163.685L372.044 178.776C372.044 178.776 373.235 186.46 364.451 184.61C355.666 182.759 345.467 177.016 345.467 177.016C345.467 177.016 350.376 170.44 347.691 167.942L360.285 172.017C360.285 172.017 362.413 171.552 360.745 169.701C359.077 167.851 358.783 164.515 358.783 164.515L366.579 158.125Z" fill="#67647E"/>
<path opacity="0.1" d="M368.611 174.052L371.113 176.919C370.47 176.722 369.895 176.349 369.452 175.843C369.01 175.336 368.719 174.716 368.611 174.052ZM364.354 173.587L368.242 178.587L366.3 179.052L364.354 173.587ZM325.573 112.222C325.144 111.177 325.47 109.97 325.97 108.965C326.47 107.96 327.189 107.047 327.559 105.983C328.134 104.394 327.956 102.615 328.583 101.05C329.683 98.31 332.809 97.0789 335.613 96.1536C336.439 95.8796 337.32 95.6016 338.17 95.8041C339.29 96.0742 340.041 97.1027 340.95 97.7898C344.755 100.625 350.938 97.5038 354.616 100.506C356.026 101.654 356.709 103.497 356.919 105.3C357.13 107.103 356.919 108.933 356.899 110.752C356.84 113.929 357.431 117.416 359.818 119.525C360.537 120.16 361.383 120.641 362.082 121.296C362.781 121.951 363.333 122.885 363.21 123.826C363.111 124.263 362.978 124.692 362.813 125.109C362.336 126.769 363.043 128.528 363.905 130.025C366.478 134.473 371.01 138.139 376.153 138.242C375.807 140.835 373.115 142.34 370.724 143.405C367.678 144.759 364.477 146.089 361.149 145.919C357.821 145.748 354.35 143.619 353.758 140.359C353.555 139.235 353.583 137.857 352.606 137.265C352.018 136.908 351.256 136.999 350.621 136.729C349.703 136.332 349.246 135.323 348.945 134.37C348.324 132.411 347.991 130.372 347.956 128.318C347.916 125.883 348.242 123.226 346.86 121.221C345.581 119.366 343.309 118.441 341.836 116.717C340.478 115.129 338.996 113.23 336.768 112.929C333.774 112.496 327.396 116.685 325.573 112.222Z" fill="black"/>
<path d="M325.573 111.667C325.144 110.622 325.47 109.415 325.97 108.41C326.47 107.406 327.189 106.492 327.559 105.428C328.134 103.839 327.956 102.06 328.583 100.496C329.683 97.7553 332.809 96.5242 335.613 95.5989C336.439 95.3249 337.32 95.0469 338.17 95.2494C339.29 95.5195 340.041 96.548 340.95 97.2351C344.755 100.075 350.938 96.9491 354.616 99.9514C356.026 101.103 356.709 102.942 356.919 104.745C357.13 106.548 356.919 108.379 356.899 110.197C356.84 113.374 357.431 116.861 359.818 118.97C360.537 119.605 361.383 120.086 362.082 120.741C362.781 121.396 363.333 122.33 363.21 123.271C363.111 123.709 362.978 124.139 362.813 124.558C362.336 126.214 363.043 127.977 363.905 129.47C366.478 133.918 371.01 137.583 376.153 137.687C375.807 140.28 373.115 141.785 370.724 142.849C367.678 144.208 364.477 145.534 361.149 145.363C357.821 145.193 354.35 143.064 353.758 139.784C353.555 138.66 353.583 137.282 352.606 136.69C352.018 136.333 351.256 136.424 350.621 136.154C349.703 135.757 349.246 134.748 348.945 133.795C348.324 131.836 347.991 129.797 347.956 127.743C347.916 125.308 348.242 122.651 346.86 120.646C345.581 118.791 343.309 117.866 341.836 116.142C340.478 114.554 338.996 112.656 336.768 112.354C333.774 111.961 327.396 116.131 325.573 111.667Z" fill="#585268"/>
<path opacity="0.1" d="M334.04 142.361L340.887 136.801C340.887 136.801 336.201 134.259 335.641 132.091C335.081 129.923 331.332 133.12 331.713 135.066C332.094 137.011 334.04 142.361 334.04 142.361Z" fill="black"/>
<path d="M334.321 141.526L341.168 135.966C341.168 135.966 336.482 133.425 335.922 131.256C335.362 129.088 331.613 132.285 331.994 134.231C332.375 136.177 334.321 141.526 334.321 141.526Z" fill="#67647E"/>
<path opacity="0.1" d="M341.429 141.166C341.73 141.166 341.973 140.923 341.973 140.622C341.973 140.322 341.73 140.078 341.429 140.078C341.129 140.078 340.885 140.322 340.885 140.622C340.885 140.923 341.129 141.166 341.429 141.166Z" fill="black"/>
<path opacity="0.1" d="M341.429 144.193C341.73 144.193 341.973 143.949 341.973 143.649C341.973 143.348 341.73 143.105 341.429 143.105C341.129 143.105 340.885 143.348 340.885 143.649C340.885 143.949 341.129 144.193 341.429 144.193Z" fill="black"/>
<path opacity="0.1" d="M341.429 147.214C341.73 147.214 341.973 146.97 341.973 146.67C341.973 146.37 341.73 146.126 341.429 146.126C341.129 146.126 340.885 146.37 340.885 146.67C340.885 146.97 341.129 147.214 341.429 147.214Z" fill="black"/>
<g opacity="0.1">
<path d="M328.327 103.95C328.867 102.46 328.752 100.792 329.256 99.2953C329.025 99.6273 328.831 99.9843 328.68 100.36C328.053 101.924 328.227 103.711 327.655 105.296C327.655 105.324 327.628 105.356 327.616 105.387C327.896 104.931 328.134 104.45 328.327 103.95ZM371.532 141.371C368.485 142.729 365.285 144.056 361.953 143.885C358.621 143.714 355.157 141.586 354.566 138.305C354.363 137.182 354.391 135.804 353.414 135.212C352.826 134.854 352.064 134.946 351.428 134.676C350.507 134.279 350.054 133.27 349.752 132.317C349.131 130.355 348.798 128.314 348.763 126.256C348.724 123.822 349.045 121.165 347.667 119.16C346.389 117.305 344.117 116.38 342.644 114.656C341.281 113.068 339.804 111.17 337.572 110.868C334.514 110.471 328.132 114.64 326.313 110.177C326.021 109.333 326.063 108.41 326.428 107.595C326.297 107.818 326.17 108.04 326.055 108.266C325.539 109.271 325.213 110.478 325.658 111.523C327.481 115.987 333.859 111.797 336.921 112.214C339.149 112.516 340.63 114.426 341.992 116.003C343.466 117.71 345.733 118.651 347.012 120.51C348.394 122.496 348.072 125.172 348.112 127.603C348.145 129.659 348.477 131.699 349.097 133.659C349.399 134.608 349.856 135.645 350.773 136.018C351.408 136.284 352.171 136.197 352.759 136.554C353.732 137.142 353.708 138.54 353.906 139.644C354.498 142.924 357.969 145.057 361.297 145.227C364.625 145.398 367.83 144.068 370.872 142.71C373.065 141.737 375.507 140.382 376.162 138.166C375.098 139.624 373.239 140.613 371.532 141.371Z" fill="black"/>
</g>
</g>
<defs>
<linearGradient id="paint0_linear_462_842" x1="139.964" y1="125.95" x2="139.964" y2="53.8947" gradientUnits="userSpaceOnUse">
<stop stop-color="#808080" stop-opacity="0.25"/>
<stop offset="0.54" stop-color="#808080" stop-opacity="0.12"/>
<stop offset="1" stop-color="#808080" stop-opacity="0.1"/>
</linearGradient>
<linearGradient id="paint1_linear_462_842" x1="226.302" y1="219.016" x2="226.302" y2="151.237" gradientUnits="userSpaceOnUse">
<stop stop-color="#808080" stop-opacity="0.25"/>
<stop offset="0.54" stop-color="#808080" stop-opacity="0.12"/>
<stop offset="1" stop-color="#808080" stop-opacity="0.1"/>
</linearGradient>
<linearGradient id="paint2_linear_462_842" x1="33.1105" y1="114.456" x2="33.1105" y2="114.357" gradientUnits="userSpaceOnUse">
<stop stop-color="#808080" stop-opacity="0.25"/>
<stop offset="0.54" stop-color="#808080" stop-opacity="0.12"/>
<stop offset="1" stop-color="#808080" stop-opacity="0.1"/>
</linearGradient>
<linearGradient id="paint3_linear_462_842" x1="55.4964" y1="326.71" x2="55.4964" y2="87.0441" gradientUnits="userSpaceOnUse">
<stop stop-color="#808080" stop-opacity="0.25"/>
<stop offset="0.54" stop-color="#808080" stop-opacity="0.12"/>
<stop offset="1" stop-color="#808080" stop-opacity="0.1"/>
</linearGradient>
<linearGradient id="paint4_linear_462_842" x1="339.865" y1="325.196" x2="339.865" y2="94.2553" gradientUnits="userSpaceOnUse">
<stop stop-color="#808080" stop-opacity="0.25"/>
<stop offset="0.54" stop-color="#808080" stop-opacity="0.12"/>
<stop offset="1" stop-color="#808080" stop-opacity="0.1"/>
</linearGradient>
<clipPath id="clip0_462_842">
<rect width="406.46" height="332.735" fill="white"/>
</clipPath>
</defs>
</svg>
