<svg width="698" height="499" viewBox="0 0 698 499" fill="none" xmlns="http://www.w3.org/2000/svg">
<g clip-path="url(#clip0_462_701)">
<g filter="url(#filter0_d_462_701)">
<path d="M640.671 6.744H20.2318C12.7827 6.744 6.74402 12.7828 6.74402 20.2321V397.898C6.74402 405.347 12.7827 411.386 20.2318 411.386H640.671C648.121 411.386 654.159 405.347 654.159 397.898V20.2321C654.159 12.7828 648.121 6.744 640.671 6.744Z" fill="black"/>
</g>
<path d="M640.671 6.744H20.2318C12.7827 6.744 6.74402 12.7828 6.74402 20.2321V397.898C6.74402 405.347 12.7827 411.386 20.2318 411.386H640.671C648.121 411.386 654.159 405.347 654.159 397.898V20.2321C654.159 12.7828 648.121 6.744 640.671 6.744Z" fill="white"/>
<g filter="url(#filter1_d_462_701)">
<path d="M20.2318 6.744H640.671C648.121 6.744 654.159 12.7827 654.159 20.2322V49.9062H6.74402V20.2322C6.74402 12.7827 12.7825 6.744 20.2318 6.744Z" fill="black"/>
</g>
<path d="M20.2318 6.744H640.671C648.121 6.744 654.159 12.7827 654.159 20.2322V49.9062H6.74402V20.2322C6.74402 12.7827 12.7825 6.744 20.2318 6.744Z" fill="#00252E"/>
<path d="M186.808 20.2321H58.6726C56.8103 20.2321 55.3007 21.7418 55.3007 23.6041V33.0458C55.3007 34.9081 56.8103 36.4178 58.6726 36.4178H186.808C188.67 36.4178 190.18 34.9081 190.18 33.0458V23.6041C190.18 21.7418 188.67 20.2321 186.808 20.2321Z" fill="#E1E8EE"/>
<path d="M609.653 21.5809H590.77C590.025 21.5809 589.421 22.1848 589.421 22.9297C589.421 23.6746 590.025 24.2785 590.77 24.2785H609.653C610.398 24.2785 611.002 23.6746 611.002 22.9297C611.002 22.1848 610.398 21.5809 609.653 21.5809Z" fill="#D8D8D8"/>
<path d="M609.653 26.9762H590.77C590.025 26.9762 589.421 27.5801 589.421 28.325C589.421 29.0699 590.025 29.6738 590.77 29.6738H609.653C610.398 29.6738 611.002 29.0699 611.002 28.325C611.002 27.5801 610.398 26.9762 609.653 26.9762Z" fill="#D8D8D8"/>
<path d="M609.653 32.3715H590.77C590.025 32.3715 589.421 32.9754 589.421 33.7203C589.421 34.4652 590.025 35.0691 590.77 35.0691H609.653C610.398 35.0691 611.002 34.4652 611.002 33.7203C611.002 32.9754 610.398 32.3715 609.653 32.3715Z" fill="#D8D8D8"/>
<path d="M87.6719 164.554C105.55 164.554 120.043 150.061 120.043 132.183C120.043 114.305 105.55 99.8114 87.6719 99.8114C69.7938 99.8114 55.3007 114.305 55.3007 132.183C55.3007 150.061 69.7938 164.554 87.6719 164.554Z" fill="url(#paint0_linear_462_701)"/>
<path d="M233.34 107.905H159.831C158.714 107.905 157.808 108.811 157.808 109.928V116.672C157.808 117.789 158.714 118.695 159.831 118.695H233.34C234.458 118.695 235.363 117.789 235.363 116.672V109.928C235.363 108.811 234.458 107.905 233.34 107.905Z" fill="#E1E8EE"/>
<path d="M425.544 129.486H159.832C158.715 129.486 157.809 130.392 157.809 131.509V132.858C157.809 133.975 158.715 134.881 159.832 134.881H425.544C426.661 134.881 427.567 133.975 427.567 132.858V131.509C427.567 130.392 426.661 129.486 425.544 129.486Z" fill="#E1E8EE"/>
<path d="M403.061 140.276H159.832C158.715 140.276 157.809 141.182 157.809 142.3V143.648C157.809 144.766 158.715 145.672 159.832 145.672H403.061C404.179 145.672 405.085 144.766 405.085 143.648V142.3C405.085 141.182 404.179 140.276 403.061 140.276Z" fill="#E1E8EE"/>
<path d="M380.586 151.067H159.832C158.715 151.067 157.809 151.973 157.809 153.09V154.439C157.809 155.556 158.715 156.462 159.832 156.462H380.586C381.703 156.462 382.609 155.556 382.609 154.439V153.09C382.609 151.973 381.703 151.067 380.586 151.067Z" fill="#E1E8EE"/>
<path d="M468.031 140.276C472.5 140.276 476.123 136.653 476.123 132.183C476.123 127.714 472.5 124.09 468.031 124.09C463.561 124.09 459.938 127.714 459.938 132.183C459.938 136.653 463.561 140.276 468.031 140.276Z" fill="#A7B9C8"/>
<path d="M511.192 140.276C515.662 140.276 519.285 136.653 519.285 132.183C519.285 127.714 515.662 124.09 511.192 124.09C506.723 124.09 503.099 127.714 503.099 132.183C503.099 136.653 506.723 140.276 511.192 140.276Z" fill="#A7B9C8"/>
<path d="M489.612 140.276C494.081 140.276 497.705 136.653 497.705 132.183C497.705 127.714 494.081 124.09 489.612 124.09C485.142 124.09 481.519 127.714 481.519 132.183C481.519 136.653 485.142 140.276 489.612 140.276Z" fill="#A7B9C8"/>
<path d="M532.774 140.276C537.243 140.276 540.866 136.653 540.866 132.183C540.866 127.714 537.243 124.09 532.774 124.09C528.304 124.09 524.681 127.714 524.681 132.183C524.681 136.653 528.304 140.276 532.774 140.276Z" fill="#A7B9C8"/>
<path d="M554.353 140.276C558.822 140.276 562.446 136.653 562.446 132.183C562.446 127.714 558.822 124.09 554.353 124.09C549.883 124.09 546.26 127.714 546.26 132.183C546.26 136.653 549.883 140.276 554.353 140.276Z" fill="#A7B9C8"/>
<path d="M85.6483 252.227C102.409 252.227 115.996 238.64 115.996 221.879C115.996 205.118 102.409 191.53 85.6483 191.53C68.8878 191.53 55.3007 205.118 55.3007 221.879C55.3007 238.64 68.8878 252.227 85.6483 252.227Z" fill="url(#paint1_linear_462_701)"/>
<path d="M231.317 197.601H157.809C156.691 197.601 155.785 198.506 155.785 199.624V206.368C155.785 207.485 156.691 208.391 157.809 208.391H231.317C232.435 208.391 233.341 207.485 233.341 206.368V199.624C233.341 198.506 232.435 197.601 231.317 197.601Z" fill="#E1E8EE"/>
<path d="M423.52 219.182H157.809C156.691 219.182 155.785 220.087 155.785 221.205V222.554C155.785 223.671 156.691 224.577 157.809 224.577H423.52C424.638 224.577 425.544 223.671 425.544 222.554V221.205C425.544 220.087 424.638 219.182 423.52 219.182Z" fill="#E1E8EE"/>
<path d="M401.038 229.972H157.809C156.691 229.972 155.785 230.878 155.785 231.995V233.344C155.785 234.461 156.691 235.367 157.809 235.367H401.038C402.155 235.367 403.061 234.461 403.061 233.344V231.995C403.061 230.878 402.155 229.972 401.038 229.972Z" fill="#E1E8EE"/>
<path d="M378.562 240.763H157.809C156.691 240.763 155.785 241.668 155.785 242.786V244.135C155.785 245.252 156.691 246.158 157.809 246.158H378.562C379.68 246.158 380.585 245.252 380.585 244.135V242.786C380.585 241.668 379.68 240.763 378.562 240.763Z" fill="#E1E8EE"/>
<path d="M466.008 229.972C470.478 229.972 474.101 226.349 474.101 221.879C474.101 217.41 470.478 213.786 466.008 213.786C461.539 213.786 457.915 217.41 457.915 221.879C457.915 226.349 461.539 229.972 466.008 229.972Z" fill="#A7B9C8"/>
<path d="M509.169 229.972C513.638 229.972 517.262 226.349 517.262 221.879C517.262 217.41 513.638 213.786 509.169 213.786C504.699 213.786 501.076 217.41 501.076 221.879C501.076 226.349 504.699 229.972 509.169 229.972Z" fill="#A7B9C8"/>
<path d="M487.588 229.972C492.058 229.972 495.681 226.349 495.681 221.879C495.681 217.41 492.058 213.786 487.588 213.786C483.119 213.786 479.496 217.41 479.496 221.879C479.496 226.349 483.119 229.972 487.588 229.972Z" fill="#A7B9C8"/>
<path d="M85.6483 348.666C102.409 348.666 115.996 335.078 115.996 318.317C115.996 301.556 102.409 287.969 85.6483 287.969C68.8878 287.969 55.3007 301.556 55.3007 318.317C55.3007 335.078 68.8878 348.666 85.6483 348.666Z" fill="url(#paint2_linear_462_701)"/>
<path d="M231.317 294.04H157.809C156.691 294.04 155.785 294.946 155.785 296.064V302.808C155.785 303.925 156.691 304.831 157.809 304.831H231.317C232.435 304.831 233.341 303.925 233.341 302.808V296.064C233.341 294.946 232.435 294.04 231.317 294.04Z" fill="#E1E8EE"/>
<path d="M423.52 315.621H157.809C156.691 315.621 155.785 316.527 155.785 317.645V318.993C155.785 320.111 156.691 321.017 157.809 321.017H423.52C424.638 321.017 425.544 320.111 425.544 318.993V317.645C425.544 316.527 424.638 315.621 423.52 315.621Z" fill="#E1E8EE"/>
<path d="M401.038 326.412H157.809C156.691 326.412 155.785 327.318 155.785 328.435V329.784C155.785 330.901 156.691 331.807 157.809 331.807H401.038C402.155 331.807 403.061 330.901 403.061 329.784V328.435C403.061 327.318 402.155 326.412 401.038 326.412Z" fill="#E1E8EE"/>
<path d="M378.562 337.203H157.809C156.691 337.203 155.785 338.108 155.785 339.226V340.575C155.785 341.692 156.691 342.598 157.809 342.598H378.562C379.68 342.598 380.585 341.692 380.585 340.575V339.226C380.585 338.108 379.68 337.203 378.562 337.203Z" fill="#E1E8EE"/>
<path d="M466.008 326.412C470.478 326.412 474.101 322.788 474.101 318.319C474.101 313.849 470.478 310.226 466.008 310.226C461.539 310.226 457.915 313.849 457.915 318.319C457.915 322.788 461.539 326.412 466.008 326.412Z" fill="#A7B9C8"/>
<path d="M509.169 326.412C513.638 326.412 517.262 322.789 517.262 318.319C517.262 313.849 513.638 310.226 509.169 310.226C504.699 310.226 501.076 313.849 501.076 318.319C501.076 322.789 504.699 326.412 509.169 326.412Z" fill="#A7B9C8"/>
<path d="M487.588 326.412C492.058 326.412 495.681 322.789 495.681 318.319C495.681 313.849 492.058 310.226 487.588 310.226C483.119 310.226 479.496 313.849 479.496 318.319C479.496 322.789 483.119 326.412 487.588 326.412Z" fill="#A7B9C8"/>
<path d="M530.751 326.412C535.22 326.412 538.843 322.789 538.843 318.319C538.843 313.849 535.22 310.226 530.751 310.226C526.281 310.226 522.658 313.849 522.658 318.319C522.658 322.789 526.281 326.412 530.751 326.412Z" fill="#A7B9C8"/>
<g filter="url(#filter2_d_462_701)">
<path d="M680.417 147.021H487.628C481.272 147.021 476.118 152.174 476.118 158.531V480.808C476.118 487.165 481.272 492.318 487.628 492.318H680.417C686.774 492.318 691.927 487.165 691.927 480.808V158.531C691.927 152.174 686.774 147.021 680.417 147.021Z" fill="black"/>
</g>
<path d="M680.417 147.021H487.628C481.272 147.021 476.118 152.174 476.118 158.531V480.808C476.118 487.165 481.272 492.318 487.628 492.318H680.417C686.774 492.318 691.927 487.165 691.927 480.808V158.531C691.927 152.174 686.774 147.021 680.417 147.021Z" fill="white"/>
<g filter="url(#filter3_d_462_701)">
<path d="M487.628 147.021H680.417C686.775 147.021 691.927 152.174 691.927 158.531V183.852H476.118V158.531C476.118 152.173 481.272 147.021 487.628 147.021Z" fill="black"/>
</g>
<path d="M487.628 147.021H680.417C686.775 147.021 691.927 152.174 691.927 158.531V183.852H476.118V158.531C476.118 152.173 481.272 147.021 487.628 147.021Z" fill="#00252E"/>
<path d="M565.059 159.68H500.677C499.088 159.68 497.8 160.968 497.8 162.558V170.614C497.8 172.203 499.088 173.492 500.677 173.492H565.059C566.648 173.492 567.937 172.203 567.937 170.614V162.558C567.937 160.968 566.648 159.68 565.059 159.68Z" fill="#E1E8EE"/>
<path d="M667.759 160.832H651.646C651.01 160.832 650.495 161.347 650.495 161.983C650.495 162.618 651.01 163.134 651.646 163.134H667.759C668.395 163.134 668.91 162.618 668.91 161.983C668.91 161.347 668.395 160.832 667.759 160.832Z" fill="#D8D8D8"/>
<path d="M667.76 165.436H651.647C651.011 165.436 650.496 165.951 650.496 166.587C650.496 167.223 651.011 167.738 651.647 167.738H667.76C668.396 167.738 668.911 167.223 668.911 166.587C668.911 165.951 668.396 165.436 667.76 165.436Z" fill="#D8D8D8"/>
<path d="M667.76 170.04H651.647C651.011 170.04 650.496 170.555 650.496 171.19C650.496 171.826 651.011 172.341 651.647 172.341H667.76C668.396 172.341 668.911 171.826 668.911 171.19C668.911 170.555 668.396 170.04 667.76 170.04Z" fill="#D8D8D8"/>
<path d="M507.824 240.089C513.41 240.089 517.939 235.56 517.939 229.973C517.939 224.386 513.41 219.856 507.824 219.856C502.237 219.856 497.708 224.386 497.708 229.973C497.708 235.56 502.237 240.089 507.824 240.089Z" fill="url(#paint3_linear_462_701)"/>
<path d="M566.884 221.879H529.347C529.005 221.879 528.727 222.157 528.727 222.5V224.855C528.727 225.198 529.005 225.476 529.347 225.476H566.884C567.227 225.476 567.504 225.198 567.504 224.855V222.5C567.504 222.157 567.227 221.879 566.884 221.879Z" fill="#E1E8EE"/>
<path d="M662.985 229.073H529.347C529.004 229.073 528.727 229.351 528.727 229.693V230.251C528.727 230.594 529.004 230.872 529.347 230.872H662.985C663.328 230.872 663.606 230.594 663.606 230.251V229.693C663.606 229.351 663.328 229.073 662.985 229.073Z" fill="#E1E8EE"/>
<path d="M651.744 232.67H529.347C529.004 232.67 528.727 232.947 528.727 233.29V233.848C528.727 234.191 529.004 234.468 529.347 234.468H651.744C652.087 234.468 652.364 234.191 652.364 233.848V233.29C652.364 232.947 652.087 232.67 651.744 232.67Z" fill="#E1E8EE"/>
<path d="M640.507 236.266H529.347C529.004 236.266 528.727 236.544 528.727 236.887V237.444C528.727 237.787 529.004 238.065 529.347 238.065H640.507C640.849 238.065 641.127 237.787 641.127 237.444V236.887C641.127 236.544 640.849 236.266 640.507 236.266Z" fill="#E1E8EE"/>
<path d="M507.824 333.158C513.41 333.158 517.939 328.629 517.939 323.042C517.939 317.455 513.41 312.925 507.824 312.925C502.237 312.925 497.708 317.455 497.708 323.042C497.708 328.629 502.237 333.158 507.824 333.158Z" fill="url(#paint4_linear_462_701)"/>
<path d="M566.884 314.947H529.347C529.005 314.947 528.727 315.225 528.727 315.567V317.923C528.727 318.266 529.005 318.544 529.347 318.544H566.884C567.227 318.544 567.504 318.266 567.504 317.923V315.567C567.504 315.225 567.227 314.947 566.884 314.947Z" fill="#E1E8EE"/>
<path d="M662.985 322.141H529.347C529.004 322.141 528.727 322.419 528.727 322.761V323.319C528.727 323.662 529.004 323.939 529.347 323.939H662.985C663.328 323.939 663.606 323.662 663.606 323.319V322.761C663.606 322.419 663.328 322.141 662.985 322.141Z" fill="#E1E8EE"/>
<path d="M651.744 325.737H529.347C529.004 325.737 528.727 326.015 528.727 326.358V326.916C528.727 327.258 529.004 327.536 529.347 327.536H651.744C652.087 327.536 652.364 327.258 652.364 326.916V326.358C652.364 326.015 652.087 325.737 651.744 325.737Z" fill="#E1E8EE"/>
<path d="M640.507 329.334H529.347C529.004 329.334 528.727 329.612 528.727 329.955V330.512C528.727 330.855 529.004 331.133 529.347 331.133H640.507C640.849 331.133 641.127 330.855 641.127 330.512V329.955C641.127 329.612 640.849 329.334 640.507 329.334Z" fill="#E1E8EE"/>
<path d="M566.884 252.902H529.347C529.005 252.902 528.727 253.18 528.727 253.522V255.878C528.727 256.221 529.005 256.498 529.347 256.498H566.884C567.227 256.498 567.504 256.221 567.504 255.878V253.522C567.504 253.18 567.227 252.902 566.884 252.902Z" fill="#E1E8EE"/>
<path d="M662.985 260.096H529.347C529.004 260.096 528.727 260.373 528.727 260.716V261.274C528.727 261.616 529.004 261.894 529.347 261.894H662.985C663.328 261.894 663.606 261.616 663.606 261.274V260.716C663.606 260.373 663.328 260.096 662.985 260.096Z" fill="#E1E8EE"/>
<path d="M651.744 263.692H529.347C529.004 263.692 528.727 263.97 528.727 264.313V264.87C528.727 265.213 529.004 265.491 529.347 265.491H651.744C652.087 265.491 652.364 265.213 652.364 264.87V264.313C652.364 263.97 652.087 263.692 651.744 263.692Z" fill="#E1E8EE"/>
<path d="M640.507 267.289H529.347C529.004 267.289 528.727 267.567 528.727 267.909V268.467C528.727 268.81 529.004 269.087 529.347 269.087H640.507C640.849 269.087 641.127 268.81 641.127 268.467V267.909C641.127 267.567 640.849 267.289 640.507 267.289Z" fill="#E1E8EE"/>
<path d="M507.824 271.11C513.41 271.11 517.939 266.581 517.939 260.994C517.939 255.407 513.41 250.877 507.824 250.877C502.237 250.877 497.708 255.407 497.708 260.994C497.708 266.581 502.237 271.11 507.824 271.11Z" fill="url(#paint5_linear_462_701)"/>
<path d="M566.884 345.97H529.347C529.005 345.97 528.727 346.247 528.727 346.59V348.946C528.727 349.288 529.005 349.566 529.347 349.566H566.884C567.227 349.566 567.504 349.288 567.504 348.946V346.59C567.504 346.247 567.227 345.97 566.884 345.97Z" fill="#E1E8EE"/>
<path d="M662.985 353.163H529.347C529.004 353.163 528.727 353.441 528.727 353.784V354.342C528.727 354.684 529.004 354.962 529.347 354.962H662.985C663.328 354.962 663.606 354.684 663.606 354.342V353.784C663.606 353.441 663.328 353.163 662.985 353.163Z" fill="#E1E8EE"/>
<path d="M651.744 356.76H529.347C529.004 356.76 528.727 357.038 528.727 357.38V357.938C528.727 358.281 529.004 358.559 529.347 358.559H651.744C652.087 358.559 652.364 358.281 652.364 357.938V357.38C652.364 357.038 652.087 356.76 651.744 356.76Z" fill="#E1E8EE"/>
<path d="M640.507 360.357H529.347C529.004 360.357 528.727 360.634 528.727 360.977V361.535C528.727 361.878 529.004 362.155 529.347 362.155H640.507C640.849 362.155 641.127 361.878 641.127 361.535V360.977C641.127 360.634 640.849 360.357 640.507 360.357Z" fill="#E1E8EE"/>
<path d="M507.824 364.179C513.41 364.179 517.939 359.65 517.939 354.063C517.939 348.476 513.41 343.947 507.824 343.947C502.237 343.947 497.708 348.476 497.708 354.063C497.708 359.65 502.237 364.179 507.824 364.179Z" fill="url(#paint6_linear_462_701)"/>
<path d="M566.884 283.924H529.347C529.005 283.924 528.727 284.202 528.727 284.545V286.9C528.727 287.243 529.005 287.521 529.347 287.521H566.884C567.227 287.521 567.504 287.243 567.504 286.9V284.545C567.504 284.202 567.227 283.924 566.884 283.924Z" fill="#E1E8EE"/>
<path d="M662.985 291.118H529.347C529.004 291.118 528.727 291.396 528.727 291.739V292.296C528.727 292.639 529.004 292.917 529.347 292.917H662.985C663.328 292.917 663.606 292.639 663.606 292.296V291.739C663.606 291.396 663.328 291.118 662.985 291.118Z" fill="#E1E8EE"/>
<path d="M651.744 294.715H529.347C529.004 294.715 528.727 294.993 528.727 295.335V295.893C528.727 296.236 529.004 296.513 529.347 296.513H651.744C652.087 296.513 652.364 296.236 652.364 295.893V295.335C652.364 294.993 652.087 294.715 651.744 294.715Z" fill="#E1E8EE"/>
<path d="M640.507 298.311H529.347C529.004 298.311 528.727 298.589 528.727 298.932V299.49C528.727 299.832 529.004 300.11 529.347 300.11H640.507C640.849 300.11 641.127 299.832 641.127 299.49V298.932C641.127 298.589 640.849 298.311 640.507 298.311Z" fill="#E1E8EE"/>
<path d="M507.824 302.132C513.41 302.132 517.939 297.603 517.939 292.016C517.939 286.429 513.41 281.9 507.824 281.9C502.237 281.9 497.708 286.429 497.708 292.016C497.708 297.603 502.237 302.132 507.824 302.132Z" fill="url(#paint7_linear_462_701)"/>
<path d="M566.884 376.992H529.347C529.005 376.992 528.727 377.27 528.727 377.613V379.968C528.727 380.311 529.005 380.589 529.347 380.589H566.884C567.227 380.589 567.504 380.311 567.504 379.968V377.613C567.504 377.27 567.227 376.992 566.884 376.992Z" fill="#E1E8EE"/>
<path d="M662.985 384.186H529.347C529.004 384.186 528.727 384.464 528.727 384.806V385.364C528.727 385.707 529.004 385.985 529.347 385.985H662.985C663.328 385.985 663.606 385.707 663.606 385.364V384.806C663.606 384.464 663.328 384.186 662.985 384.186Z" fill="#E1E8EE"/>
<path d="M651.744 387.783H529.347C529.004 387.783 528.727 388.061 528.727 388.403V388.961C528.727 389.304 529.004 389.581 529.347 389.581H651.744C652.087 389.581 652.364 389.304 652.364 388.961V388.403C652.364 388.061 652.087 387.783 651.744 387.783Z" fill="#E1E8EE"/>
<path d="M640.507 391.379H529.347C529.004 391.379 528.727 391.657 528.727 392V392.557C528.727 392.9 529.004 393.178 529.347 393.178H640.507C640.849 393.178 641.127 392.9 641.127 392.557V392C641.127 391.657 640.849 391.379 640.507 391.379Z" fill="#E1E8EE"/>
<path d="M507.824 395.2C513.41 395.2 517.939 390.671 517.939 385.084C517.939 379.497 513.41 374.967 507.824 374.967C502.237 374.967 497.708 379.497 497.708 385.084C497.708 390.671 502.237 395.2 507.824 395.2Z" fill="url(#paint8_linear_462_701)"/>
<path d="M507.824 426.225C513.41 426.225 517.939 421.696 517.939 416.109C517.939 410.522 513.41 405.993 507.824 405.993C502.237 405.993 497.708 410.522 497.708 416.109C497.708 421.696 502.237 426.225 507.824 426.225Z" fill="url(#paint9_linear_462_701)"/>
<path d="M566.884 408.015H529.347C529.005 408.015 528.727 408.293 528.727 408.635V410.991C528.727 411.334 529.005 411.611 529.347 411.611H566.884C567.227 411.611 567.504 411.334 567.504 410.991V408.635C567.504 408.293 567.227 408.015 566.884 408.015Z" fill="#E1E8EE"/>
<path d="M662.985 415.209H529.347C529.004 415.209 528.727 415.486 528.727 415.829V416.387C528.727 416.729 529.004 417.007 529.347 417.007H662.985C663.328 417.007 663.606 416.729 663.606 416.387V415.829C663.606 415.486 663.328 415.209 662.985 415.209Z" fill="#E1E8EE"/>
<path d="M651.744 418.805H529.347C529.004 418.805 528.727 419.083 528.727 419.426V419.984C528.727 420.326 529.004 420.604 529.347 420.604H651.744C652.087 420.604 652.364 420.326 652.364 419.984V419.426C652.364 419.083 652.087 418.805 651.744 418.805Z" fill="#E1E8EE"/>
<path d="M640.507 422.402H529.347C529.004 422.402 528.727 422.68 528.727 423.022V423.58C528.727 423.923 529.004 424.201 529.347 424.201H640.507C640.849 424.201 641.127 423.923 641.127 423.58V423.022C641.127 422.68 640.849 422.402 640.507 422.402Z" fill="#E1E8EE"/>
<path d="M566.884 439.037H529.347C529.005 439.037 528.727 439.315 528.727 439.658V442.014C528.727 442.356 529.005 442.634 529.347 442.634H566.884C567.227 442.634 567.504 442.356 567.504 442.014V439.658C567.504 439.315 567.227 439.037 566.884 439.037Z" fill="#E1E8EE"/>
<path d="M662.985 446.231H529.347C529.004 446.231 528.727 446.509 528.727 446.852V447.409C528.727 447.752 529.004 448.03 529.347 448.03H662.985C663.328 448.03 663.606 447.752 663.606 447.409V446.852C663.606 446.509 663.328 446.231 662.985 446.231Z" fill="#E1E8EE"/>
<path d="M651.744 449.828H529.347C529.004 449.828 528.727 450.106 528.727 450.448V451.006C528.727 451.349 529.004 451.627 529.347 451.627H651.744C652.087 451.627 652.364 451.349 652.364 451.006V450.448C652.364 450.106 652.087 449.828 651.744 449.828Z" fill="#E1E8EE"/>
<path d="M640.507 453.425H529.347C529.004 453.425 528.727 453.702 528.727 454.045V454.603C528.727 454.945 529.004 455.223 529.347 455.223H640.507C640.849 455.223 641.127 454.945 641.127 454.603V454.045C641.127 453.702 640.849 453.425 640.507 453.425Z" fill="#E1E8EE"/>
<path d="M507.824 457.248C513.41 457.248 517.939 452.719 517.939 447.132C517.939 441.545 513.41 437.016 507.824 437.016C502.237 437.016 497.708 441.545 497.708 447.132C497.708 452.719 502.237 457.248 507.824 457.248Z" fill="url(#paint10_linear_462_701)"/>
</g>
<defs>
<filter id="filter0_d_462_701" x="-3.25598" y="-3.256" width="667.415" height="424.642" filterUnits="userSpaceOnUse" color-interpolation-filters="sRGB">
<feFlood flood-opacity="0" result="BackgroundImageFix"/>
<feColorMatrix in="SourceAlpha" type="matrix" values="0 0 0 0 0 0 0 0 0 0 0 0 0 0 0 0 0 0 127 0" result="hardAlpha"/>
<feOffset/>
<feGaussianBlur stdDeviation="5"/>
<feColorMatrix type="matrix" values="0 0 0 0 0 0 0 0 0 0.145098 0 0 0 0 0.180392 0 0 0 0.181839 0"/>
<feBlend mode="normal" in2="BackgroundImageFix" result="effect1_dropShadow_462_701"/>
<feBlend mode="normal" in="SourceGraphic" in2="effect1_dropShadow_462_701" result="shape"/>
</filter>
<filter id="filter1_d_462_701" x="-3.25598" y="-3.256" width="667.415" height="63.1622" filterUnits="userSpaceOnUse" color-interpolation-filters="sRGB">
<feFlood flood-opacity="0" result="BackgroundImageFix"/>
<feColorMatrix in="SourceAlpha" type="matrix" values="0 0 0 0 0 0 0 0 0 0 0 0 0 0 0 0 0 0 127 0" result="hardAlpha"/>
<feOffset/>
<feGaussianBlur stdDeviation="5"/>
<feColorMatrix type="matrix" values="0 0 0 0 0 0 0 0 0 0.145098 0 0 0 0 0.180392 0 0 0 0.181839 0"/>
<feBlend mode="normal" in2="BackgroundImageFix" result="effect1_dropShadow_462_701"/>
<feBlend mode="normal" in="SourceGraphic" in2="effect1_dropShadow_462_701" result="shape"/>
</filter>
<filter id="filter2_d_462_701" x="467.118" y="138.021" width="233.809" height="363.297" filterUnits="userSpaceOnUse" color-interpolation-filters="sRGB">
<feFlood flood-opacity="0" result="BackgroundImageFix"/>
<feColorMatrix in="SourceAlpha" type="matrix" values="0 0 0 0 0 0 0 0 0 0 0 0 0 0 0 0 0 0 127 0" result="hardAlpha"/>
<feOffset/>
<feGaussianBlur stdDeviation="4.5"/>
<feColorMatrix type="matrix" values="0 0 0 0 0 0 0 0 0 0.145098 0 0 0 0 0.180392 0 0 0 0.181839 0"/>
<feBlend mode="normal" in2="BackgroundImageFix" result="effect1_dropShadow_462_701"/>
<feBlend mode="normal" in="SourceGraphic" in2="effect1_dropShadow_462_701" result="shape"/>
</filter>
<filter id="filter3_d_462_701" x="467.118" y="138.021" width="233.809" height="54.8312" filterUnits="userSpaceOnUse" color-interpolation-filters="sRGB">
<feFlood flood-opacity="0" result="BackgroundImageFix"/>
<feColorMatrix in="SourceAlpha" type="matrix" values="0 0 0 0 0 0 0 0 0 0 0 0 0 0 0 0 0 0 127 0" result="hardAlpha"/>
<feOffset/>
<feGaussianBlur stdDeviation="4.5"/>
<feColorMatrix type="matrix" values="0 0 0 0 0 0 0 0 0 0.145098 0 0 0 0 0.180392 0 0 0 0.181839 0"/>
<feBlend mode="normal" in2="BackgroundImageFix" result="effect1_dropShadow_462_701"/>
<feBlend mode="normal" in="SourceGraphic" in2="effect1_dropShadow_462_701" result="shape"/>
</filter>
<linearGradient id="paint0_linear_462_701" x1="64.8897" y1="85.3335" x2="104.503" y2="177.118" gradientUnits="userSpaceOnUse">
<stop stop-color="#FAD961"/>
<stop offset="1" stop-color="#FF52C1"/>
</linearGradient>
<linearGradient id="paint1_linear_462_701" x1="85.6483" y1="191.53" x2="85.6483" y2="252.227" gradientUnits="userSpaceOnUse">
<stop stop-color="#00C7FA"/>
<stop offset="1" stop-color="#007DFA"/>
</linearGradient>
<linearGradient id="paint2_linear_462_701" x1="72.8859" y1="287.969" x2="110.049" y2="355.49" gradientUnits="userSpaceOnUse">
<stop stop-color="#FF52C1"/>
<stop offset="1" stop-color="#9952FF"/>
</linearGradient>
<linearGradient id="paint3_linear_462_701" x1="500.704" y1="215.332" x2="513.084" y2="244.015" gradientUnits="userSpaceOnUse">
<stop stop-color="#FAD961"/>
<stop offset="1" stop-color="#FF52C1"/>
</linearGradient>
<linearGradient id="paint4_linear_462_701" x1="500.704" y1="308.401" x2="513.084" y2="337.084" gradientUnits="userSpaceOnUse">
<stop stop-color="#FAD961"/>
<stop offset="1" stop-color="#FF52C1"/>
</linearGradient>
<linearGradient id="paint5_linear_462_701" x1="507.824" y1="250.877" x2="507.824" y2="271.11" gradientUnits="userSpaceOnUse">
<stop stop-color="#00C7FA"/>
<stop offset="1" stop-color="#007DFA"/>
</linearGradient>
<linearGradient id="paint6_linear_462_701" x1="507.824" y1="343.947" x2="507.824" y2="364.179" gradientUnits="userSpaceOnUse">
<stop stop-color="#00C7FA"/>
<stop offset="1" stop-color="#007DFA"/>
</linearGradient>
<linearGradient id="paint7_linear_462_701" x1="503.569" y1="281.9" x2="515.957" y2="304.407" gradientUnits="userSpaceOnUse">
<stop stop-color="#FF52C1"/>
<stop offset="1" stop-color="#9952FF"/>
</linearGradient>
<linearGradient id="paint8_linear_462_701" x1="503.569" y1="374.967" x2="515.957" y2="397.474" gradientUnits="userSpaceOnUse">
<stop stop-color="#FF52C1"/>
<stop offset="1" stop-color="#9952FF"/>
</linearGradient>
<linearGradient id="paint9_linear_462_701" x1="500.704" y1="401.468" x2="513.084" y2="430.151" gradientUnits="userSpaceOnUse">
<stop stop-color="#FAD961"/>
<stop offset="1" stop-color="#FF52C1"/>
</linearGradient>
<linearGradient id="paint10_linear_462_701" x1="507.824" y1="437.016" x2="507.824" y2="457.248" gradientUnits="userSpaceOnUse">
<stop stop-color="#00C7FA"/>
<stop offset="1" stop-color="#007DFA"/>
</linearGradient>
<clipPath id="clip0_462_701">
<rect width="698" height="498.385" fill="white"/>
</clipPath>
</defs>
</svg>
