<svg width="200" height="33" viewBox="0 0 200 33" fill="none" xmlns="http://www.w3.org/2000/svg">
<g clip-path="url(#clip0_462_683)">
<path d="M23.3059 0.732489C16.8684 0.729155 10.1517 2.17916 3.37255 4.05999C2.51171 4.23333 1.67171 4.79666 1.22755 5.49333C0.819215 6.15 0.670882 6.80916 0.543382 7.5C-0.114951 11.19 -0.0349508 14.8133 0.101716 18.8283C0.131716 19.7475 0.268382 20.8367 0.697549 21.4992C1.14588 22.1683 1.91421 22.5933 2.83171 22.7325C4.00388 22.9044 5.17973 23.0503 6.35838 23.17L6.09838 30.4184C6.05838 30.995 6.34004 31.4742 6.69004 31.75C7.00338 31.9884 7.35254 32.0942 7.71088 32.1209C8.42754 32.175 9.26838 31.8684 9.68588 31.0734C11.515 27.5534 12.6625 25.9992 14.95 23.6608C20.915 23.8075 26.1225 23.4758 32.0184 23.04C34.1025 22.9858 35.5334 21.2817 35.9117 19.9208C37.0425 16.3942 37.2184 12.0408 37.3384 7.64C37.3892 5.89583 36.7842 4.18333 35.7134 3.27833C34.695 2.45249 33.4617 2.15332 32.3317 1.84666C29.1925 1.13582 26.0525 0.754155 23.3059 0.732489ZM31.8809 3.49083C33.0125 3.79833 34.01 4.09416 34.6392 4.60499C35.6892 5.72083 35.6542 6.46333 35.6392 7.6675C35.5209 11.9358 35.3159 16.0783 34.3525 19.2175C33.9375 20.3883 33.2142 21.2217 31.8475 21.3475C25.8409 21.7917 20.6292 22.135 14.5917 21.9633C14.4741 21.9596 14.3571 21.98 14.2477 22.0233C14.1383 22.0666 14.039 22.1318 13.9559 22.215C11.4192 24.7767 10.1217 26.5567 8.18838 30.2784C8.14338 30.3634 8.04588 30.415 7.92588 30.4242C7.84504 30.42 7.81254 30.3575 7.80754 30.3009L8.06921 22.4408C8.08504 22.0167 7.73504 21.6117 7.31338 21.5658C5.90348 21.4312 4.49742 21.2589 3.09671 21.0492C2.49171 20.9567 2.26838 20.7908 2.10255 20.5442C1.81421 19.8567 1.82088 19.4317 1.79838 18.7708C1.66338 14.7917 1.59671 11.3142 2.20755 7.85416C2.26421 7.3425 2.45588 6.81916 2.65921 6.38166C2.99588 5.85499 3.51171 5.77749 4.02921 5.63416C10.6592 3.80333 17.1459 2.43416 23.2525 2.42999C26.2459 2.53832 29.3892 2.83832 31.8809 3.49083ZM8.98171 10.2325C8.06838 11.3267 8.15921 12.8125 8.86504 13.8075C9.23338 14.3283 9.80838 14.7475 10.5084 14.8425C11.4175 14.9175 11.9942 14.5492 12.6167 14.1258C13.7442 13.1458 13.8584 11.4358 13.0009 10.2008C12.5642 9.57167 11.8659 9.19417 11.1525 9.1675C10.1759 9.1775 9.51254 9.61333 8.98171 10.2317V10.2325ZM18.8617 9.33917C17.9517 9.36833 17.2159 9.99833 16.7667 10.6783C16.2525 11.4558 15.9525 12.4292 16.3684 13.3833C17.1684 15.2192 19.9325 15.1967 21.035 13.3308C21.5434 12.4708 21.4134 11.4933 21.035 10.7842C20.6584 10.0758 20.0884 9.49833 19.2592 9.36583C19.1279 9.34424 18.9948 9.33531 18.8617 9.33917ZM26.8825 9.51167C26.5992 9.505 26.3075 9.53167 26.0342 9.60417C24.9409 9.89583 24.01 11.0242 24.1509 12.4683C24.2225 13.195 24.5567 13.9033 25.1592 14.3917C25.7617 14.8792 26.6367 15.0975 27.5592 14.9083C28.6192 14.6917 29.2759 13.8375 29.495 13.0125C29.7142 12.1875 29.6592 11.3467 29.15 10.665C28.8851 10.3127 28.5431 10.0257 28.1503 9.82577C27.7574 9.62587 27.3241 9.51844 26.8834 9.51167H26.8825ZM11.0784 10.8642C11.2825 10.8658 11.4434 10.9308 11.6092 11.1692C11.98 11.7042 11.8767 12.515 11.5025 12.84C11.13 13.165 10.8975 13.1933 10.7342 13.1717C10.5709 13.1492 10.405 13.0367 10.2567 12.8267C9.97338 12.4267 9.89004 11.78 10.2625 11.3183C10.4609 11.055 10.825 10.8908 11.0792 10.8642H11.0784ZM18.9809 11.05C19.0125 11.055 19.3675 11.2608 19.5375 11.58C19.7075 11.8992 19.7392 12.1958 19.5775 12.4683C19.0967 13.2817 18.0742 13.0617 17.9192 12.7075C17.8609 12.5725 17.905 12.03 18.1859 11.6075C18.465 11.1833 18.8167 11.0242 18.9809 11.0492V11.05ZM27.7842 11.6733C27.8359 11.7425 27.9617 12.2067 27.8642 12.575C27.7659 12.9433 27.6059 13.1708 27.2142 13.2508C26.7125 13.3542 26.4309 13.2508 26.22 13.0783C26.0084 12.9075 25.8659 12.6183 25.835 12.3092C25.76 11.5425 26.035 11.365 26.4717 11.2483C26.98 11.1233 27.555 11.3417 27.7842 11.6733Z" fill="#FF52C1"/>
<path d="M48.0084 4.16333C48.0218 3.94666 48.1009 3.75166 48.2476 3.57916C48.319 3.4946 48.4087 3.42739 48.5099 3.38263C48.6111 3.33787 48.7212 3.31674 48.8318 3.32083H54.5201C54.7118 3.32083 54.9093 3.40083 55.1134 3.56C55.2091 3.62868 55.2869 3.71933 55.3402 3.82431C55.3936 3.9293 55.421 4.04556 55.4201 4.16333V13.2408H64.9376V4.16333C64.9376 3.93333 65.0176 3.73583 65.1768 3.57C65.3368 3.40333 65.5434 3.32 65.7993 3.32H71.411C71.666 3.32 71.8893 3.38416 72.081 3.51166C72.2726 3.64 72.3685 3.84416 72.3685 4.125V30.9167C72.3685 31.1975 72.2851 31.4084 72.1185 31.5484C71.9535 31.6892 71.736 31.7592 71.4685 31.7592H65.7993C65.5443 31.7592 65.3368 31.6892 65.1768 31.5484C65.0176 31.4084 64.9376 31.1984 64.9376 30.9167V20.0392H55.4201V30.9167C55.4201 31.185 55.3334 31.3917 55.1618 31.5392C54.9893 31.6859 54.7559 31.7592 54.4618 31.7592H48.8318C48.2959 31.7592 48.0218 31.51 48.0084 31.0125V4.16333ZM100.404 31.4342C100.238 31.5742 100.063 31.6634 99.8777 31.7017C99.7048 31.739 99.5286 31.7585 99.3518 31.76H96.4601C96.2301 31.76 96.0318 31.7184 95.866 31.635C95.6993 31.5517 95.5593 31.44 95.4443 31.3C95.3267 31.1546 95.2302 30.9933 95.1576 30.8209C95.0805 30.6407 95.0164 30.4553 94.966 30.2659L94.3727 27.8142C94.181 28.21 93.9035 28.66 93.5393 29.1642C93.1453 29.6992 92.6779 30.1761 92.151 30.5809C91.5893 31.0225 90.9185 31.3925 90.1401 31.6925C89.361 31.9925 88.4676 32.1425 87.4585 32.1425C86.0035 32.1425 84.6818 31.8617 83.4943 31.3C82.3317 30.7568 81.2973 29.9735 80.4593 29.0017C79.6235 28.0317 78.9751 26.8984 78.516 25.6017C78.056 24.3067 77.826 22.9242 77.826 21.4567V8.91251C77.826 8.42751 77.9318 8.06084 78.1426 7.81167C78.3526 7.5625 78.6876 7.43834 79.1476 7.43834H83.571C84.121 7.43834 84.4968 7.53 84.701 7.71584C84.9051 7.90084 85.0076 8.26167 85.0076 8.79751V21.2642C85.0076 21.8142 85.1326 22.3342 85.381 22.8259C85.6301 23.3175 85.9585 23.7509 86.3676 24.1275C86.776 24.5042 87.2385 24.8017 87.756 25.0184C88.2726 25.235 88.7993 25.3434 89.336 25.3434C89.7951 25.3434 90.271 25.235 90.7626 25.0184C91.2576 24.7989 91.7159 24.505 92.1218 24.1467C92.5368 23.7834 92.8785 23.355 93.1468 22.8634C93.4151 22.3717 93.5485 21.8517 93.5485 21.3034V8.85501C93.5485 8.63834 93.5901 8.42167 93.6735 8.20417C93.7568 7.9875 93.881 7.82084 94.0468 7.70584C94.2127 7.60417 94.3693 7.53417 94.516 7.49584C94.6626 7.4575 94.8326 7.4375 95.0235 7.4375H99.3518C99.9002 7.4375 100.296 7.5725 100.538 7.84C100.781 8.10834 100.903 8.46584 100.903 8.91251V30.3425C100.903 30.5842 100.848 30.8084 100.74 31.0125C100.632 31.2167 100.482 31.3767 100.29 31.4909L100.404 31.4342ZM122.639 28.7909C122.294 29.1359 121.914 29.5059 121.499 29.9017C121.084 30.2975 120.628 30.6684 120.13 31.0125C119.629 31.3589 119.09 31.645 118.522 31.865C117.929 32.0919 117.298 32.2055 116.664 32.2C114.928 32.2 113.329 31.875 111.866 31.2234C110.44 30.5978 109.157 29.6888 108.094 28.5517C107.04 27.4217 106.217 26.0909 105.623 24.5584C105.029 23.0267 104.733 21.38 104.733 19.6175C104.733 17.8425 105.029 16.1925 105.623 14.6675C106.217 13.1425 107.04 11.8142 108.094 10.6842C109.156 9.54813 110.44 8.64221 111.866 8.0225C113.329 7.3775 114.928 7.055 116.664 7.055C117.366 7.055 118.008 7.1575 118.589 7.36167C119.149 7.55585 119.683 7.81957 120.178 8.14667C120.657 8.46584 121.097 8.82667 121.499 9.22834C121.901 9.63084 122.281 10.0233 122.639 10.4067V1.65416C122.639 1.24583 122.764 0.901659 123.012 0.620825C123.261 0.339158 123.634 0.199158 124.133 0.199158H128.441C128.608 0.199158 128.783 0.234158 128.968 0.304158C129.153 0.374991 129.322 0.473325 129.476 0.601658C129.629 0.729159 129.753 0.882492 129.849 1.06083C129.944 1.23999 129.993 1.43749 129.993 1.65416V30.285C129.993 31.2684 129.476 31.76 128.441 31.76H124.688C124.433 31.76 124.234 31.7267 124.094 31.6634C123.955 31.601 123.833 31.5057 123.739 31.3859C123.633 31.2453 123.546 31.0908 123.481 30.9267C123.391 30.7105 123.295 30.4965 123.194 30.285L122.639 28.7909ZM111.627 19.6175C111.62 20.4229 111.753 21.2232 112.019 21.9834C112.281 22.7167 112.654 23.3525 113.14 23.8884C113.631 24.4284 114.227 24.8618 114.892 25.1617C115.575 25.475 116.332 25.6309 117.162 25.6309C117.979 25.6309 118.748 25.4842 119.469 25.1909C120.17 24.9101 120.81 24.497 121.355 23.9742C121.896 23.4506 122.335 22.8305 122.649 22.1459C122.974 21.4434 123.156 20.69 123.194 19.8859V19.6175C123.197 18.8161 123.041 18.0222 122.734 17.2817C122.438 16.5558 122.005 15.8929 121.461 15.3284C120.915 14.7645 120.265 14.3124 119.546 13.9975C118.795 13.6684 117.982 13.5019 117.162 13.5092C116.332 13.5092 115.575 13.6717 114.892 13.9975C114.209 14.3225 113.625 14.7667 113.14 15.3284C112.647 15.9033 112.267 16.566 112.019 17.2817C111.756 18.0322 111.624 18.8223 111.628 19.6175H111.627ZM152.227 28.7909C151.882 29.1359 151.502 29.5059 151.087 29.9017C150.672 30.2975 150.215 30.6684 149.718 31.0125C149.217 31.3589 148.677 31.645 148.109 31.865C147.516 32.0919 146.886 32.2055 146.251 32.2C144.515 32.2 142.916 31.875 141.454 31.2234C140.028 30.5979 138.745 29.6889 137.681 28.5517C136.629 27.4217 135.804 26.0909 135.211 24.5584C134.618 23.0267 134.32 21.38 134.32 19.6175C134.32 17.8425 134.618 16.1925 135.211 14.6675C135.804 13.1425 136.628 11.8142 137.681 10.6842C138.743 9.54803 140.028 8.64211 141.454 8.0225C142.916 7.3775 144.515 7.055 146.251 7.055C146.954 7.055 147.595 7.1575 148.176 7.36167C148.737 7.55585 149.27 7.81957 149.765 8.14667C150.244 8.46584 150.684 8.82667 151.087 9.22834C151.489 9.63084 151.869 10.0233 152.226 10.4067V1.65416C152.226 1.24583 152.351 0.901659 152.599 0.620825C152.849 0.339158 153.222 0.199158 153.72 0.199158H158.029C158.195 0.199158 158.37 0.234158 158.555 0.304158C158.741 0.374991 158.91 0.473325 159.064 0.601658C159.216 0.729159 159.341 0.882492 159.437 1.06083C159.532 1.23999 159.58 1.43749 159.58 1.65416V30.285C159.58 31.2684 159.064 31.76 158.029 31.76H154.275C154.02 31.76 153.822 31.7267 153.682 31.6634C153.543 31.6009 153.422 31.5056 153.328 31.3859C153.221 31.2453 153.134 31.0908 153.069 30.9267C152.979 30.7105 152.883 30.4965 152.782 30.285L152.226 28.7909H152.227ZM141.214 19.6175C141.208 20.4229 141.341 21.2232 141.607 21.9834C141.869 22.7167 142.243 23.3525 142.728 23.8884C143.218 24.4285 143.815 24.8619 144.48 25.1617C145.164 25.475 145.919 25.6309 146.749 25.6309C147.566 25.6309 148.335 25.4842 149.057 25.1909C149.758 24.9102 150.399 24.4971 150.944 23.9742C151.484 23.4505 151.922 22.8304 152.235 22.1459C152.561 21.4434 152.744 20.69 152.782 19.8859V19.6175C152.785 18.8161 152.628 18.0222 152.322 17.2817C152.025 16.5558 151.593 15.8929 151.049 15.3284C150.503 14.7645 149.852 14.3124 149.134 13.9975C148.382 13.6684 147.57 13.5019 146.749 13.5092C145.919 13.5092 145.163 13.6717 144.48 13.9975C143.797 14.3225 143.213 14.7667 142.728 15.3284C142.235 15.9033 141.854 16.566 141.607 17.2817C141.344 18.0322 141.211 18.8223 141.215 19.6175H141.214ZM164.675 1.67333C164.675 1.26499 164.777 0.920826 164.981 0.639992C165.186 0.358325 165.537 0.218324 166.034 0.218324H170.726C170.854 0.218324 170.989 0.253324 171.129 0.323325C171.276 0.398814 171.409 0.499502 171.521 0.620825C171.643 0.748325 171.744 0.901659 171.828 1.07999C171.911 1.25916 171.953 1.45666 171.953 1.67333V30.285C171.953 30.77 171.815 31.1367 171.54 31.3859C171.266 31.635 170.912 31.7592 170.478 31.7592H166.034C165.537 31.7592 165.186 31.6342 164.981 31.3859C164.777 31.1367 164.675 30.7692 164.675 30.285V1.67333ZM196.925 28.8484C195.815 29.8741 194.531 30.6944 193.134 31.2709C191.718 31.854 190.202 32.1503 188.671 32.1425C186.921 32.1425 185.269 31.8234 183.711 31.1842C182.189 30.5689 180.798 29.669 179.613 28.5325C178.432 27.394 177.483 26.038 176.817 24.5392C176.127 23.0075 175.783 21.3417 175.783 19.5409C175.783 18.4175 175.919 17.3292 176.194 16.2759C176.46 15.2452 176.853 14.2515 177.363 13.3175C177.867 12.3982 178.485 11.5457 179.201 10.78C179.916 10.013 180.73 9.34616 181.624 8.79751C182.532 8.2418 183.511 7.81019 184.534 7.51417C185.611 7.20379 186.727 7.04916 187.847 7.055C188.907 7.055 189.934 7.19584 190.93 7.47667C191.926 7.7575 192.862 8.15334 193.736 8.66334C194.611 9.17417 195.411 9.78751 196.139 10.5025C196.858 11.2056 197.488 11.9933 198.016 12.8483C198.54 13.6972 198.949 14.6115 199.233 15.5675C199.519 16.5317 199.664 17.5242 199.664 18.545C199.664 19.2092 199.654 19.7517 199.634 20.1734C199.615 20.5942 199.516 20.93 199.338 21.1784C199.159 21.4284 198.863 21.6 198.447 21.695C198.032 21.7917 197.422 21.8392 196.619 21.8392H182.83C182.958 22.6559 183.216 23.3392 183.605 23.8892C183.966 24.4098 184.424 24.855 184.955 25.2C185.466 25.5259 186.009 25.7584 186.584 25.9C187.116 26.0348 187.662 26.1053 188.211 26.11C188.671 26.11 189.143 26.0617 189.628 25.9667C190.106 25.8729 190.576 25.7448 191.036 25.5834C191.466 25.434 191.882 25.248 192.28 25.0275C192.657 24.8175 192.96 24.5967 193.19 24.3675C193.394 24.2009 193.57 24.0767 193.717 23.9934C193.864 23.91 194.02 23.8692 194.186 23.8692C194.353 23.8692 194.521 23.9275 194.694 24.0417C194.904 24.1885 195.1 24.3551 195.278 24.5392L197.308 26.8375C197.448 27.0042 197.538 27.1542 197.576 27.2875C197.614 27.4217 197.634 27.5592 197.634 27.6992C197.634 27.955 197.563 28.175 197.423 28.36C197.281 28.5461 197.113 28.7107 196.924 28.8484H196.925ZM187.714 12.8958C187.215 12.8958 186.734 12.995 186.268 13.1925C185.795 13.3944 185.353 13.662 184.955 13.9875C184.547 14.3192 184.18 14.6959 183.854 15.1175C183.543 15.5151 183.277 15.9454 183.059 16.4009H192.845C192.589 15.9207 192.298 15.4598 191.974 15.0217C191.667 14.606 191.307 14.2326 190.902 13.9108C190.488 13.5854 190.022 13.3329 189.523 13.1642C189.006 12.985 188.403 12.8958 187.714 12.8958Z" fill="#00252E"/>
</g>
<defs>
<clipPath id="clip0_462_683">
<rect width="200" height="32.5001" fill="white"/>
</clipPath>
</defs>
</svg>
